<svg width="430" height="932" viewBox="0 0 430 932" fill="none" xmlns="http://www.w3.org/2000/svg">
<g clip-path="url(#clip0_39_116)">
<rect width="430" height="932" fill="white"/>
<g opacity="0.05">
<path d="M-66.5004 115.961C-91.3684 115.936 -105.442 127.284 -105.442 127.284C-105.442 127.284 -103.192 158.37 -82.2047 169.839C-47.1312 189.198 7.70718 157.452 7.70718 157.452C7.70718 157.452 -4.67349 150.699 -17.9287 140.012C-33.5848 127.312 -46.5473 115.82 -66.5004 115.961Z" fill="url(#paint0_linear_39_116)"/>
<path d="M11.567 67.7018C-11.9343 69.2406 -24.6114 80.8023 -24.6114 80.8023C-24.6114 80.8023 -20.4486 109.922 0.11273 119.519C34.5745 135.49 84.3115 102.061 84.3115 102.061C84.3115 102.061 72.2634 96.4217 58.7854 87.1094C43.3852 76.4939 30.3927 66.3524 11.567 67.7018Z" fill="url(#paint1_linear_39_116)"/>
<path d="M-19.7529 77.3196L-24.4187 80.7786C-24.4187 80.7786 -20.2559 109.898 0.305427 119.495C21.901 129.542 49.5328 120.185 67.0883 111.68C67.2812 111.656 67.4509 111.443 67.4509 111.443C67.4509 111.443 35.8619 110.896 24.8646 107.437C-1.2437 98.9054 -19.7529 77.3196 -19.7529 77.3196Z" fill="url(#paint2_linear_39_116)"/>
<path d="M0.191199 40.4299C-18.3788 55.024 -35.4619 54.6202 -35.4619 54.6202C-35.4619 54.6202 -52.1753 30.1203 -43.555 9.43636C-29.0184 -25.2501 30.658 -33.5394 30.658 -33.5394C30.658 -33.5394 25.4965 -21.3613 21.9578 -5.53425C17.9268 12.6621 15.0133 28.7972 0.191199 40.4299Z" fill="url(#paint3_linear_39_116)"/>
<path d="M-29.6524 54.0994L-35.4621 54.6203C-35.4621 54.6203 -52.1754 30.1203 -43.5552 9.4364C-34.4727 -12.2663 -7.48262 -23.6614 11.2168 -29.2283C11.4097 -29.252 11.6025 -29.2756 11.6025 -29.2756C11.6025 -29.2756 -11.4304 -7.97649 -17.0641 1.95076C-30.5895 25.7382 -29.6524 54.0994 -29.6524 54.0994Z" fill="url(#paint4_linear_39_116)"/>
<path d="M68.794 7.57103C48.5481 19.6772 42.8644 35.5753 42.8644 35.5753C42.8644 35.5753 60.3027 59.6014 83.1024 58.726C121.302 57.3066 149.94 5.11148 149.94 5.11148C149.94 5.11148 136.491 5.60828 120.163 3.38018C101.258 0.891302 85.0293 -2.11869 68.794 7.57103Z" fill="url(#paint5_linear_39_116)"/>
<path d="M49.642 28.5862C46.6491 29.7233 42.8412 35.3859 42.8412 35.3859C42.8412 35.3859 60.2795 59.412 83.0792 58.5367C107.059 57.7087 127.199 36.7648 139.025 21.4595C139.195 21.2463 139.364 21.0331 139.364 21.0331C139.364 21.0331 111.11 34.8921 99.5842 36.6922C82.4877 39.3686 68.4776 30.5065 58.3449 27.7101C56.5392 27.3546 53.1904 27.1885 49.642 28.5862Z" fill="url(#paint6_linear_39_116)"/>
<path d="M80.7675 180.037C74.742 169.232 80.5821 145.041 91.1175 138.36C96.3852 135.02 101.826 136.276 105.247 141.82C111.396 152.033 107.801 175.37 98.7783 183.213C92.2236 188.827 85.0239 187.595 80.7675 180.037Z" fill="#23363C"/>
<path d="M124.012 198.97C121.365 186.981 134.182 165.397 146.101 162.009C152.157 160.304 156.988 162.981 158.551 169.331C161.537 180.894 151.228 202.17 140.29 207.169C132.515 210.817 126.024 207.381 124.012 198.97Z" fill="#23363C"/>
<path d="M166.591 226.836C167.223 214.444 185.251 197.031 197.542 196.676C203.977 196.463 207.791 200.42 207.811 206.959C207.711 218.901 192.091 236.789 180.225 239.015C171.592 240.46 166.095 235.555 166.591 226.836Z" fill="#23363C"/>
<path d="M199.086 268.254C202.535 256.478 224.231 243.424 236.293 245.984C242.528 247.335 245.448 251.979 243.685 258.352C240.791 269.867 221.357 283.798 209.335 283.157C200.855 282.659 196.592 276.641 199.086 268.254Z" fill="#23363C"/>
<path d="M217.698 316.187C226.411 307.421 251.911 306.214 261.299 314.104C266.101 318.132 266.39 323.677 261.887 328.463C253.753 337.158 229.882 340.473 219.716 334.218C212.098 329.573 211.406 322.347 217.698 316.187Z" fill="#23363C"/>
<path d="M252.72 397.315C241.42 402.551 217.211 395.133 211.209 384.518C208.196 379.116 209.905 373.904 215.798 370.871C226.473 365.327 250.017 370.518 257.423 379.806C262.574 386.677 260.688 393.643 252.72 397.315Z" fill="#23363C"/>
<path d="M225.33 456.476C212.893 457.234 193.176 441.761 191.494 429.653C190.726 423.398 194.118 419.134 200.892 418.494C212.874 417.215 232.697 430.366 236.069 441.882C238.42 449.866 234.249 455.766 225.33 456.476Z" fill="#23363C"/>
<path d="M184.515 505.164C172.261 502.628 157.626 482.298 159.485 470.333C160.283 464.078 164.995 460.998 171.593 462.112C183.392 464.127 198.905 482.04 198.998 493.958C198.841 502.25 193.135 506.799 184.515 505.164Z" fill="#23363C"/>
<path d="M138.289 540.086C127.036 534.541 118.487 511.155 123.379 499.972C125.813 494.285 131.244 492.272 137.064 495.021C148.054 500.02 158.107 521.298 155.213 532.813C152.888 540.987 146.201 543.924 138.289 540.086Z" fill="#23363C"/>
<path d="M273.552 500.004C261.471 490.905 248.698 496.899 246.137 498.367C241.548 500.855 228.525 514.383 235.797 532.154C248.247 561.795 296.68 562.39 296.68 562.39C296.68 562.39 294.937 552.984 291.888 539.312C288.367 523.39 286.066 509.435 273.552 500.004Z" fill="url(#paint7_linear_39_116)"/>
<path d="M252.08 500.524C250.69 498.771 248.984 497.633 245.798 498.794C241.84 500.05 228.069 513.862 235.528 533.149C242.747 552.081 264.309 558.668 283.215 561.157C283.408 561.134 285.213 561.489 285.213 561.489C285.213 561.489 265.324 541.42 260.565 532.961C253.319 520.19 254.344 517.37 253.636 508.414C253.619 506.684 253.902 502.609 252.08 500.524Z" fill="url(#paint8_linear_39_116)"/>
<path d="M310.583 434.849C295.559 432.076 286.932 443.14 285.259 445.462C282.253 449.679 276.609 467.496 291.471 480.102C316.175 501.12 359.81 480.177 359.81 480.177C359.81 480.177 353.964 472.429 345.022 461.79C334.666 449.208 326.017 437.764 310.583 434.849Z" fill="url(#paint9_linear_39_116)"/>
<path d="M291.817 444.657C289.749 443.756 287.774 443.614 285.499 445.817C282.522 448.684 276.37 467.141 291.973 481.002C307.143 494.532 329.231 491.05 347.475 484.962C347.668 484.939 349.357 484.346 349.357 484.346C349.357 484.346 322.385 475.152 314.287 469.797C302.129 461.669 301.757 458.636 296.899 450.959C295.748 449.561 294.102 445.723 291.817 444.657Z" fill="url(#paint10_linear_39_116)"/>
<path d="M325.06 286.458C310.534 290.935 308.089 304.511 307.667 307.449C307.115 312.519 310.553 330.953 329.475 335.172C361.3 342.424 390.046 303.876 390.046 303.876C390.046 303.876 381.317 299.753 368.135 294.445C353.054 288.023 340.164 281.909 325.06 286.458Z" fill="url(#paint11_linear_39_116)"/>
<path d="M312.888 303.729C310.55 303.824 308.691 304.629 307.69 307.638C306.42 311.643 309.712 330.479 329.93 335.693C349.74 340.764 367.871 327.378 381.064 313.637L382.467 312.31C382.467 312.31 354.207 316.55 344.477 315.436C329.785 313.776 327.916 311.312 320.104 306.691C318.877 306.265 315.612 303.587 312.888 303.729Z" fill="url(#paint12_linear_39_116)"/>
<path d="M282.745 203.338C269.316 210.375 257.76 202.365 255.406 200.73C251.299 197.579 240.787 182.13 251.123 165.853C268.52 138.512 316.394 145.718 316.394 145.718C316.394 145.718 313.197 154.768 307.743 167.752C301.534 182.56 296.705 195.852 282.745 203.338Z" fill="url(#paint13_linear_39_116)"/>
<path d="M261.701 199.38C259.935 200.944 258.076 201.749 255.336 200.162C251.585 198.314 240.448 182.557 250.984 164.716C261.373 147.278 283.701 144.152 302.952 144.674C303.145 144.651 304.904 144.627 304.904 144.627C304.904 144.627 281.891 161.306 275.569 168.817C266.194 180.165 266.759 183.174 264.505 191.917C264.305 193.481 263.636 197.603 261.701 199.38Z" fill="url(#paint14_linear_39_116)"/>
<path d="M229.349 141.59C219.395 153.01 205.675 149.692 202.835 148.886C197.757 147.393 182.164 136.802 185.716 117.894C191.613 86.1929 239.081 75.7467 239.081 75.7467C239.081 75.7467 239.473 85.3189 239.22 99.2033C239.077 115.575 239.642 129.744 229.349 141.59Z" fill="url(#paint15_linear_39_116)"/>
<path d="M208.295 145.522C207.37 147.56 205.774 148.91 202.595 148.531C198.428 148.081 182.064 137.583 185.43 117.16C188.649 97.1391 208.263 86.2648 226.461 79.7975C226.653 79.7738 228.343 79.1816 228.343 79.1816C228.343 79.1816 213.058 102.993 210.078 112.209C205.705 126.022 207.211 128.724 208.305 137.632C208.491 139.149 209.559 143.058 208.295 145.522Z" fill="url(#paint16_linear_39_116)"/>
<path d="M-65.5625 249.568C-47.1066 272.315 -34.6732 300.227 -30.8563 331.313C-25.4801 375.099 -38.3376 417.083 -63.4925 449.802C-63.0602 450.134 -62.6046 450.655 -62.1723 450.987C-32.6957 477.383 7.79853 491.459 50.6178 486.202C128.155 476.681 183.447 407.168 174.091 330.969C164.735 254.77 94.269 200.698 16.7313 210.218C-15.4796 214.173 -43.6868 228.411 -65.2233 249.142C-65.3929 249.355 -65.5858 249.379 -65.5625 249.568Z" fill="url(#paint17_linear_39_116)"/>
<path d="M-65.5624 249.569C-47.1064 272.315 -34.6731 300.227 -30.8562 331.313C-25.48 375.099 -38.3374 417.083 -63.4924 449.802C-63.0601 450.134 -62.6045 450.655 -62.1722 450.987C-32.6956 477.383 7.79867 491.459 50.618 486.202C79.7428 482.626 105.868 470.567 126.404 452.846C126.404 452.846 131.971 447.159 124.007 399.843C117.105 357.976 97.6982 309.949 75.3553 266.707C58.1732 233.606 38.1344 209.13 38.1344 209.13C31.0511 208.845 23.868 209.342 16.5386 210.242C-15.6723 214.197 -43.8796 228.435 -65.416 249.166C-65.3928 249.355 -65.5857 249.379 -65.5624 249.569Z" fill="url(#paint18_linear_39_116)"/>
<path d="M-65.5624 249.569C-47.1065 272.315 -34.6731 300.227 -30.8562 331.313C-25.48 375.099 -38.3375 417.083 -63.4924 449.802C-63.0601 450.134 -62.6045 450.655 -62.1722 450.987C-33.1279 477.051 6.57153 491.033 48.6891 486.438C48.6891 486.438 67.8348 455.804 58.6353 371.313C49.5454 289.309 -6.73675 215.216 -6.73675 215.216C-29.2239 221.825 -49.3003 233.718 -65.3928 249.355C-65.3928 249.355 -65.5857 249.379 -65.5624 249.569Z" fill="url(#paint19_linear_39_116)"/>
<path d="M-65.5625 249.569C-47.1065 272.315 -34.6732 300.227 -30.8563 331.313C-25.4801 375.099 -38.3375 417.083 -63.4924 449.802C-63.0601 450.134 -62.6045 450.655 -62.1722 450.987C-46.3066 465.393 -27.1953 475.938 -6.08848 482.005C-6.08848 482.005 20.7096 437.155 12.1251 360.861C2.33704 273.171 -40.1751 229.904 -40.1751 229.904C-40.1751 229.904 -40.1751 229.904 -40.368 229.928C-49.4766 235.472 -57.8903 241.892 -65.4161 249.166C-65.3928 249.355 -65.5857 249.379 -65.5625 249.569Z" fill="url(#paint20_linear_39_116)"/>
</g>
</g>
<defs>
<linearGradient id="paint0_linear_39_116" x1="-8.55124" y1="164.011" x2="-93.9854" y2="133.913" gradientUnits="userSpaceOnUse">
<stop stop-color="#DB5C15"/>
<stop offset="1" stop-color="#D44F12"/>
</linearGradient>
<linearGradient id="paint1_linear_39_116" x1="69.5358" y1="109.512" x2="-13.4121" y2="86.555" gradientUnits="userSpaceOnUse">
<stop stop-color="#DB5C15"/>
<stop offset="1" stop-color="#D44F12"/>
</linearGradient>
<linearGradient id="paint2_linear_39_116" x1="65.4674" y1="118.65" x2="-27.9196" y2="92.8035" gradientUnits="userSpaceOnUse">
<stop stop-color="#9D310E"/>
<stop offset="1" stop-color="#6D251B"/>
</linearGradient>
<linearGradient id="paint3_linear_39_116" x1="14.7252" y1="-29.0942" x2="-30.7761" y2="43.1624" gradientUnits="userSpaceOnUse">
<stop stop-color="#DB5C15"/>
<stop offset="1" stop-color="#D44F12"/>
</linearGradient>
<linearGradient id="paint4_linear_39_116" x1="5.49831" y1="-33.165" x2="-45.7294" y2="48.1851" gradientUnits="userSpaceOnUse">
<stop stop-color="#9D310E"/>
<stop offset="1" stop-color="#6D251B"/>
</linearGradient>
<linearGradient id="paint5_linear_39_116" x1="140.066" y1="18.3659" x2="55.7992" y2="36.8444" gradientUnits="userSpaceOnUse">
<stop stop-color="#FAB715"/>
<stop offset="0.5116" stop-color="#F7A40E"/>
<stop offset="1" stop-color="#D87007"/>
</linearGradient>
<linearGradient id="paint6_linear_39_116" x1="140.621" y1="27.841" x2="45.7496" y2="48.645" gradientUnits="userSpaceOnUse">
<stop stop-color="#D87007"/>
<stop offset="0.5051" stop-color="#CA4F10"/>
<stop offset="1" stop-color="#AD380F"/>
</linearGradient>
<linearGradient id="paint7_linear_39_116" x1="284.176" y1="559.891" x2="247.792" y2="508.071" gradientUnits="userSpaceOnUse">
<stop stop-color="#FAB715"/>
<stop offset="0.5116" stop-color="#F7A40E"/>
<stop offset="1" stop-color="#D87007"/>
</linearGradient>
<linearGradient id="paint8_linear_39_116" x1="276.549" y1="567.395" x2="233.998" y2="506.79" gradientUnits="userSpaceOnUse">
<stop stop-color="#D87007"/>
<stop offset="0.5051" stop-color="#CA4F10"/>
<stop offset="1" stop-color="#C44210"/>
</linearGradient>
<linearGradient id="paint9_linear_39_116" x1="347.533" y1="483.45" x2="291.388" y2="453.136" gradientUnits="userSpaceOnUse">
<stop stop-color="#FAB715"/>
<stop offset="0.5116" stop-color="#F7A40E"/>
<stop offset="1" stop-color="#D87007"/>
</linearGradient>
<linearGradient id="paint10_linear_39_116" x1="344.119" y1="493.503" x2="278.456" y2="458.05" gradientUnits="userSpaceOnUse">
<stop stop-color="#D87007"/>
<stop offset="0.5051" stop-color="#CA4F10"/>
<stop offset="1" stop-color="#C44210"/>
</linearGradient>
<linearGradient id="paint11_linear_39_116" x1="380.902" y1="312.351" x2="316.744" y2="312.136" gradientUnits="userSpaceOnUse">
<stop stop-color="#FAB715"/>
<stop offset="0.5116" stop-color="#F7A40E"/>
<stop offset="1" stop-color="#D87007"/>
</linearGradient>
<linearGradient id="paint12_linear_39_116" x1="382.648" y1="322.789" x2="307.615" y2="322.537" gradientUnits="userSpaceOnUse">
<stop stop-color="#D87007"/>
<stop offset="0.5051" stop-color="#CA4F10"/>
<stop offset="1" stop-color="#C44210"/>
</linearGradient>
<linearGradient id="paint13_linear_39_116" x1="303.557" y1="145.918" x2="258.873" y2="191.385" gradientUnits="userSpaceOnUse">
<stop stop-color="#FAB715"/>
<stop offset="0.5116" stop-color="#F7A40E"/>
<stop offset="1" stop-color="#D87007"/>
</linearGradient>
<linearGradient id="paint14_linear_39_116" x1="297.326" y1="137.312" x2="245.067" y2="190.486" gradientUnits="userSpaceOnUse">
<stop stop-color="#D87007"/>
<stop offset="0.5051" stop-color="#CA4F10"/>
<stop offset="1" stop-color="#C44210"/>
</linearGradient>
<linearGradient id="paint15_linear_39_116" x1="227.584" y1="80.7579" x2="202.691" y2="139.01" gradientUnits="userSpaceOnUse">
<stop stop-color="#FAB715"/>
<stop offset="0.5116" stop-color="#F7A40E"/>
<stop offset="1" stop-color="#D87007"/>
</linearGradient>
<linearGradient id="paint16_linear_39_116" x1="218.577" y1="74.9963" x2="189.465" y2="143.123" gradientUnits="userSpaceOnUse">
<stop stop-color="#D87007"/>
<stop offset="0.5051" stop-color="#CA4F10"/>
<stop offset="1" stop-color="#C44210"/>
</linearGradient>
<linearGradient id="paint17_linear_39_116" x1="50.7405" y1="208.642" x2="58.9473" y2="486.61" gradientUnits="userSpaceOnUse">
<stop stop-color="#F3A313"/>
<stop offset="0.5116" stop-color="#FDC221"/>
<stop offset="1" stop-color="#F3A313"/>
</linearGradient>
<linearGradient id="paint18_linear_39_116" x1="26.1966" y1="209.367" x2="34.4036" y2="487.335" gradientUnits="userSpaceOnUse">
<stop stop-color="#EA770C"/>
<stop offset="0.5116" stop-color="#F38910"/>
<stop offset="1" stop-color="#C35011"/>
</linearGradient>
<linearGradient id="paint19_linear_39_116" x1="-6.77256" y1="252.952" x2="0.460211" y2="462.097" gradientUnits="userSpaceOnUse">
<stop stop-color="#E05710"/>
<stop offset="0.5116" stop-color="#E55B12"/>
<stop offset="1" stop-color="#9E3114"/>
</linearGradient>
<linearGradient id="paint20_linear_39_116" x1="-28.8568" y1="267.466" x2="-23.6479" y2="443.888" gradientUnits="userSpaceOnUse">
<stop stop-color="#C7430F"/>
<stop offset="0.5116" stop-color="#CE450F"/>
<stop offset="1" stop-color="#7C2A18"/>
</linearGradient>
<clipPath id="clip0_39_116">
<rect width="430" height="932" fill="white"/>
</clipPath>
</defs>
</svg>
