<svg width="420" height="692" viewBox="0 0 420 692" fill="none" xmlns="http://www.w3.org/2000/svg">
<g opacity="0.05">
<path d="M-66.5004 187.961C-91.3684 187.936 -105.442 199.284 -105.442 199.284C-105.442 199.284 -103.192 230.37 -82.2047 241.839C-47.1312 261.198 7.70718 229.452 7.70718 229.452C7.70718 229.452 -4.67349 222.699 -17.9287 212.012C-33.5848 199.312 -46.5473 187.82 -66.5004 187.961Z" fill="url(#paint0_linear_39_114)"/>
<path d="M11.567 139.702C-11.9343 141.241 -24.6114 152.802 -24.6114 152.802C-24.6114 152.802 -20.4486 181.922 0.11273 191.519C34.5745 207.49 84.3115 174.061 84.3115 174.061C84.3115 174.061 72.2634 168.422 58.7854 159.109C43.3852 148.494 30.3927 138.352 11.567 139.702Z" fill="url(#paint1_linear_39_114)"/>
<path d="M-19.7529 149.32L-24.4187 152.779C-24.4187 152.779 -20.2559 181.898 0.305427 191.495C21.901 201.542 49.5328 192.185 67.0883 183.68C67.2812 183.656 67.4509 183.443 67.4509 183.443C67.4509 183.443 35.8619 182.896 24.8646 179.437C-1.2437 170.905 -19.7529 149.32 -19.7529 149.32Z" fill="url(#paint2_linear_39_114)"/>
<path d="M0.191199 112.43C-18.3788 127.024 -35.4619 126.62 -35.4619 126.62C-35.4619 126.62 -52.1753 102.12 -43.555 81.4364C-29.0184 46.7499 30.658 38.4606 30.658 38.4606C30.658 38.4606 25.4965 50.6387 21.9578 66.4658C17.9268 84.6621 15.0133 100.797 0.191199 112.43Z" fill="url(#paint3_linear_39_114)"/>
<path d="M-29.6524 126.099L-35.4621 126.62C-35.4621 126.62 -52.1754 102.12 -43.5552 81.4364C-34.4727 59.7337 -7.48262 48.3386 11.2168 42.7717C11.4097 42.748 11.6025 42.7244 11.6025 42.7244C11.6025 42.7244 -11.4304 64.0235 -17.0641 73.9508C-30.5895 97.7382 -29.6524 126.099 -29.6524 126.099Z" fill="url(#paint4_linear_39_114)"/>
<path d="M68.794 79.571C48.5481 91.6772 42.8644 107.575 42.8644 107.575C42.8644 107.575 60.3027 131.601 83.1024 130.726C121.302 129.307 149.94 77.1115 149.94 77.1115C149.94 77.1115 136.491 77.6083 120.163 75.3802C101.258 72.8913 85.0293 69.8813 68.794 79.571Z" fill="url(#paint5_linear_39_114)"/>
<path d="M49.642 100.586C46.6491 101.723 42.8412 107.386 42.8412 107.386C42.8412 107.386 60.2795 131.412 83.0792 130.537C107.059 129.709 127.199 108.765 139.025 93.4595C139.195 93.2463 139.364 93.0331 139.364 93.0331C139.364 93.0331 111.11 106.892 99.5842 108.692C82.4877 111.369 68.4776 102.506 58.3449 99.7101C56.5392 99.3546 53.1904 99.1885 49.642 100.586Z" fill="url(#paint6_linear_39_114)"/>
<path d="M80.7675 252.037C74.742 241.232 80.5821 217.041 91.1175 210.36C96.3852 207.02 101.826 208.276 105.247 213.82C111.396 224.033 107.801 247.37 98.7783 255.213C92.2236 260.827 85.0239 259.595 80.7675 252.037Z" fill="#23363C"/>
<path d="M124.012 270.97C121.365 258.981 134.182 237.397 146.101 234.009C152.157 232.304 156.988 234.981 158.551 241.331C161.537 252.894 151.228 274.17 140.29 279.169C132.515 282.817 126.024 279.381 124.012 270.97Z" fill="#23363C"/>
<path d="M166.591 298.836C167.223 286.444 185.251 269.031 197.542 268.676C203.977 268.463 207.791 272.42 207.811 278.959C207.711 290.901 192.091 308.789 180.225 311.015C171.592 312.46 166.095 307.555 166.591 298.836Z" fill="#23363C"/>
<path d="M199.086 340.254C202.535 328.478 224.231 315.424 236.293 317.984C242.528 319.335 245.448 323.979 243.685 330.352C240.791 341.867 221.357 355.798 209.335 355.157C200.855 354.659 196.592 348.641 199.086 340.254Z" fill="#23363C"/>
<path d="M217.698 388.187C226.411 379.421 251.911 378.214 261.299 386.104C266.101 390.132 266.39 395.677 261.887 400.463C253.753 409.158 229.882 412.473 219.716 406.218C212.098 401.573 211.406 394.347 217.698 388.187Z" fill="#23363C"/>
<path d="M252.72 469.315C241.42 474.551 217.211 467.133 211.209 456.518C208.196 451.116 209.905 445.904 215.798 442.871C226.473 437.327 250.017 442.518 257.423 451.806C262.574 458.677 260.688 465.643 252.72 469.315Z" fill="#23363C"/>
<path d="M225.33 528.476C212.893 529.234 193.176 513.761 191.494 501.653C190.726 495.398 194.118 491.134 200.892 490.494C212.874 489.215 232.697 502.366 236.069 513.882C238.42 521.866 234.249 527.766 225.33 528.476Z" fill="#23363C"/>
<path d="M184.515 577.164C172.261 574.628 157.626 554.298 159.485 542.333C160.283 536.078 164.995 532.998 171.593 534.112C183.392 536.127 198.905 554.04 198.998 565.958C198.841 574.25 193.135 578.799 184.515 577.164Z" fill="#23363C"/>
<path d="M138.289 612.086C127.036 606.541 118.487 583.155 123.379 571.972C125.813 566.285 131.244 564.272 137.064 567.021C148.054 572.02 158.107 593.298 155.213 604.813C152.888 612.987 146.201 615.924 138.289 612.086Z" fill="#23363C"/>
<path d="M273.552 572.004C261.471 562.905 248.698 568.899 246.137 570.367C241.548 572.855 228.525 586.383 235.797 604.154C248.247 633.795 296.68 634.39 296.68 634.39C296.68 634.39 294.937 624.984 291.888 611.312C288.367 595.39 286.066 581.435 273.552 572.004Z" fill="url(#paint7_linear_39_114)"/>
<path d="M252.08 572.524C250.69 570.771 248.984 569.633 245.798 570.794C241.84 572.05 228.069 585.862 235.528 605.149C242.747 624.081 264.309 630.668 283.215 633.157C283.408 633.134 285.213 633.489 285.213 633.489C285.213 633.489 265.324 613.42 260.565 604.961C253.319 592.19 254.344 589.37 253.636 580.414C253.619 578.684 253.902 574.609 252.08 572.524Z" fill="url(#paint8_linear_39_114)"/>
<path d="M310.583 506.849C295.559 504.076 286.932 515.14 285.259 517.462C282.253 521.679 276.609 539.496 291.471 552.102C316.175 573.12 359.81 552.177 359.81 552.177C359.81 552.177 353.964 544.429 345.022 533.79C334.666 521.208 326.017 509.764 310.583 506.849Z" fill="url(#paint9_linear_39_114)"/>
<path d="M291.817 516.657C289.749 515.756 287.774 515.614 285.499 517.817C282.522 520.684 276.37 539.141 291.973 553.002C307.143 566.532 329.231 563.05 347.475 556.962C347.668 556.939 349.357 556.346 349.357 556.346C349.357 556.346 322.385 547.152 314.287 541.797C302.129 533.669 301.757 530.636 296.899 522.959C295.748 521.561 294.102 517.723 291.817 516.657Z" fill="url(#paint10_linear_39_114)"/>
<path d="M325.06 358.458C310.534 362.935 308.089 376.511 307.667 379.449C307.115 384.519 310.553 402.953 329.475 407.172C361.3 414.424 390.046 375.876 390.046 375.876C390.046 375.876 381.317 371.753 368.135 366.445C353.054 360.023 340.164 353.909 325.06 358.458Z" fill="url(#paint11_linear_39_114)"/>
<path d="M312.888 375.729C310.55 375.824 308.691 376.629 307.69 379.638C306.42 383.643 309.712 402.479 329.93 407.693C349.74 412.764 367.871 399.378 381.064 385.637L382.467 384.31C382.467 384.31 354.207 388.55 344.477 387.436C329.785 385.776 327.916 383.312 320.104 378.691C318.877 378.265 315.612 375.587 312.888 375.729Z" fill="url(#paint12_linear_39_114)"/>
<path d="M282.745 275.338C269.316 282.375 257.76 274.365 255.406 272.73C251.299 269.579 240.787 254.13 251.123 237.853C268.52 210.512 316.394 217.718 316.394 217.718C316.394 217.718 313.197 226.768 307.743 239.752C301.534 254.56 296.705 267.852 282.745 275.338Z" fill="url(#paint13_linear_39_114)"/>
<path d="M261.701 271.38C259.935 272.944 258.076 273.749 255.336 272.162C251.585 270.314 240.448 254.557 250.984 236.716C261.373 219.278 283.701 216.152 302.952 216.674C303.145 216.651 304.904 216.627 304.904 216.627C304.904 216.627 281.891 233.306 275.569 240.817C266.194 252.165 266.759 255.174 264.505 263.917C264.305 265.481 263.636 269.603 261.701 271.38Z" fill="url(#paint14_linear_39_114)"/>
<path d="M229.349 213.59C219.395 225.01 205.675 221.692 202.835 220.886C197.757 219.393 182.164 208.802 185.716 189.894C191.613 158.193 239.081 147.747 239.081 147.747C239.081 147.747 239.473 157.319 239.22 171.203C239.077 187.575 239.642 201.744 229.349 213.59Z" fill="url(#paint15_linear_39_114)"/>
<path d="M208.295 217.522C207.37 219.56 205.774 220.91 202.595 220.531C198.428 220.081 182.064 209.583 185.43 189.16C188.649 169.139 208.263 158.265 226.461 151.798C226.653 151.774 228.343 151.182 228.343 151.182C228.343 151.182 213.058 174.993 210.078 184.209C205.705 198.022 207.211 200.724 208.305 209.632C208.491 211.149 209.559 215.058 208.295 217.522Z" fill="url(#paint16_linear_39_114)"/>
<path d="M-65.5625 321.568C-47.1066 344.315 -34.6732 372.227 -30.8563 403.313C-25.4801 447.099 -38.3376 489.083 -63.4925 521.802C-63.0602 522.134 -62.6046 522.655 -62.1723 522.987C-32.6957 549.383 7.79853 563.459 50.6178 558.202C128.155 548.681 183.447 479.168 174.091 402.969C164.735 326.77 94.269 272.698 16.7313 282.218C-15.4796 286.173 -43.6868 300.411 -65.2233 321.142C-65.3929 321.355 -65.5858 321.379 -65.5625 321.568Z" fill="url(#paint17_linear_39_114)"/>
<path d="M-65.5624 321.569C-47.1064 344.315 -34.6731 372.227 -30.8562 403.313C-25.48 447.099 -38.3374 489.083 -63.4924 521.802C-63.0601 522.134 -62.6045 522.655 -62.1722 522.987C-32.6956 549.383 7.79867 563.459 50.618 558.202C79.7428 554.626 105.868 542.567 126.404 524.846C126.404 524.846 131.971 519.159 124.007 471.843C117.105 429.976 97.6982 381.949 75.3553 338.707C58.1732 305.606 38.1344 281.13 38.1344 281.13C31.0511 280.845 23.868 281.342 16.5386 282.242C-15.6723 286.197 -43.8796 300.435 -65.416 321.166C-65.3928 321.355 -65.5857 321.379 -65.5624 321.569Z" fill="url(#paint18_linear_39_114)"/>
<path d="M-65.5624 321.569C-47.1065 344.315 -34.6731 372.227 -30.8562 403.313C-25.48 447.099 -38.3375 489.083 -63.4924 521.802C-63.0601 522.134 -62.6045 522.655 -62.1722 522.987C-33.1279 549.051 6.57153 563.033 48.6891 558.438C48.6891 558.438 67.8348 527.804 58.6353 443.313C49.5454 361.309 -6.73675 287.216 -6.73675 287.216C-29.2239 293.825 -49.3003 305.718 -65.3928 321.355C-65.3928 321.355 -65.5857 321.379 -65.5624 321.569Z" fill="url(#paint19_linear_39_114)"/>
<path d="M-65.5625 321.569C-47.1065 344.315 -34.6732 372.227 -30.8563 403.313C-25.4801 447.099 -38.3375 489.083 -63.4924 521.802C-63.0601 522.134 -62.6045 522.655 -62.1722 522.987C-46.3066 537.393 -27.1953 547.938 -6.08848 554.005C-6.08848 554.005 20.7096 509.155 12.1251 432.861C2.33704 345.171 -40.1751 301.904 -40.1751 301.904C-40.1751 301.904 -40.1751 301.904 -40.368 301.928C-49.4766 307.472 -57.8903 313.892 -65.4161 321.166C-65.3928 321.355 -65.5857 321.379 -65.5625 321.569Z" fill="url(#paint20_linear_39_114)"/>
</g>
<defs>
<linearGradient id="paint0_linear_39_114" x1="-8.55124" y1="236.011" x2="-93.9854" y2="205.913" gradientUnits="userSpaceOnUse">
<stop stop-color="#DB5C15"/>
<stop offset="1" stop-color="#D44F12"/>
</linearGradient>
<linearGradient id="paint1_linear_39_114" x1="69.5358" y1="181.512" x2="-13.4121" y2="158.555" gradientUnits="userSpaceOnUse">
<stop stop-color="#DB5C15"/>
<stop offset="1" stop-color="#D44F12"/>
</linearGradient>
<linearGradient id="paint2_linear_39_114" x1="65.4674" y1="190.65" x2="-27.9196" y2="164.803" gradientUnits="userSpaceOnUse">
<stop stop-color="#9D310E"/>
<stop offset="1" stop-color="#6D251B"/>
</linearGradient>
<linearGradient id="paint3_linear_39_114" x1="14.7252" y1="42.9058" x2="-30.7761" y2="115.162" gradientUnits="userSpaceOnUse">
<stop stop-color="#DB5C15"/>
<stop offset="1" stop-color="#D44F12"/>
</linearGradient>
<linearGradient id="paint4_linear_39_114" x1="5.49831" y1="38.835" x2="-45.7294" y2="120.185" gradientUnits="userSpaceOnUse">
<stop stop-color="#9D310E"/>
<stop offset="1" stop-color="#6D251B"/>
</linearGradient>
<linearGradient id="paint5_linear_39_114" x1="140.066" y1="90.3659" x2="55.7992" y2="108.844" gradientUnits="userSpaceOnUse">
<stop stop-color="#FAB715"/>
<stop offset="0.5116" stop-color="#F7A40E"/>
<stop offset="1" stop-color="#D87007"/>
</linearGradient>
<linearGradient id="paint6_linear_39_114" x1="140.621" y1="99.841" x2="45.7496" y2="120.645" gradientUnits="userSpaceOnUse">
<stop stop-color="#D87007"/>
<stop offset="0.5051" stop-color="#CA4F10"/>
<stop offset="1" stop-color="#AD380F"/>
</linearGradient>
<linearGradient id="paint7_linear_39_114" x1="284.176" y1="631.891" x2="247.792" y2="580.071" gradientUnits="userSpaceOnUse">
<stop stop-color="#FAB715"/>
<stop offset="0.5116" stop-color="#F7A40E"/>
<stop offset="1" stop-color="#D87007"/>
</linearGradient>
<linearGradient id="paint8_linear_39_114" x1="276.549" y1="639.395" x2="233.998" y2="578.79" gradientUnits="userSpaceOnUse">
<stop stop-color="#D87007"/>
<stop offset="0.5051" stop-color="#CA4F10"/>
<stop offset="1" stop-color="#C44210"/>
</linearGradient>
<linearGradient id="paint9_linear_39_114" x1="347.533" y1="555.45" x2="291.388" y2="525.136" gradientUnits="userSpaceOnUse">
<stop stop-color="#FAB715"/>
<stop offset="0.5116" stop-color="#F7A40E"/>
<stop offset="1" stop-color="#D87007"/>
</linearGradient>
<linearGradient id="paint10_linear_39_114" x1="344.119" y1="565.503" x2="278.456" y2="530.05" gradientUnits="userSpaceOnUse">
<stop stop-color="#D87007"/>
<stop offset="0.5051" stop-color="#CA4F10"/>
<stop offset="1" stop-color="#C44210"/>
</linearGradient>
<linearGradient id="paint11_linear_39_114" x1="380.902" y1="384.351" x2="316.744" y2="384.136" gradientUnits="userSpaceOnUse">
<stop stop-color="#FAB715"/>
<stop offset="0.5116" stop-color="#F7A40E"/>
<stop offset="1" stop-color="#D87007"/>
</linearGradient>
<linearGradient id="paint12_linear_39_114" x1="382.648" y1="394.789" x2="307.615" y2="394.537" gradientUnits="userSpaceOnUse">
<stop stop-color="#D87007"/>
<stop offset="0.5051" stop-color="#CA4F10"/>
<stop offset="1" stop-color="#C44210"/>
</linearGradient>
<linearGradient id="paint13_linear_39_114" x1="303.557" y1="217.918" x2="258.873" y2="263.385" gradientUnits="userSpaceOnUse">
<stop stop-color="#FAB715"/>
<stop offset="0.5116" stop-color="#F7A40E"/>
<stop offset="1" stop-color="#D87007"/>
</linearGradient>
<linearGradient id="paint14_linear_39_114" x1="297.326" y1="209.312" x2="245.067" y2="262.486" gradientUnits="userSpaceOnUse">
<stop stop-color="#D87007"/>
<stop offset="0.5051" stop-color="#CA4F10"/>
<stop offset="1" stop-color="#C44210"/>
</linearGradient>
<linearGradient id="paint15_linear_39_114" x1="227.584" y1="152.758" x2="202.691" y2="211.01" gradientUnits="userSpaceOnUse">
<stop stop-color="#FAB715"/>
<stop offset="0.5116" stop-color="#F7A40E"/>
<stop offset="1" stop-color="#D87007"/>
</linearGradient>
<linearGradient id="paint16_linear_39_114" x1="218.577" y1="146.996" x2="189.465" y2="215.123" gradientUnits="userSpaceOnUse">
<stop stop-color="#D87007"/>
<stop offset="0.5051" stop-color="#CA4F10"/>
<stop offset="1" stop-color="#C44210"/>
</linearGradient>
<linearGradient id="paint17_linear_39_114" x1="50.7405" y1="280.642" x2="58.9473" y2="558.61" gradientUnits="userSpaceOnUse">
<stop stop-color="#F3A313"/>
<stop offset="0.5116" stop-color="#FDC221"/>
<stop offset="1" stop-color="#F3A313"/>
</linearGradient>
<linearGradient id="paint18_linear_39_114" x1="26.1966" y1="281.367" x2="34.4036" y2="559.335" gradientUnits="userSpaceOnUse">
<stop stop-color="#EA770C"/>
<stop offset="0.5116" stop-color="#F38910"/>
<stop offset="1" stop-color="#C35011"/>
</linearGradient>
<linearGradient id="paint19_linear_39_114" x1="-6.77256" y1="324.952" x2="0.460211" y2="534.097" gradientUnits="userSpaceOnUse">
<stop stop-color="#E05710"/>
<stop offset="0.5116" stop-color="#E55B12"/>
<stop offset="1" stop-color="#9E3114"/>
</linearGradient>
<linearGradient id="paint20_linear_39_114" x1="-28.8568" y1="339.466" x2="-23.6479" y2="515.888" gradientUnits="userSpaceOnUse">
<stop stop-color="#C7430F"/>
<stop offset="0.5116" stop-color="#CE450F"/>
<stop offset="1" stop-color="#7C2A18"/>
</linearGradient>
</defs>
</svg>
