<svg width="103" height="123" viewBox="0 0 103 123" fill="none" xmlns="http://www.w3.org/2000/svg">
<g clip-path="url(#clip0_1_3)">
<path d="M72.8388 52.6799C75.4983 52.6549 77.7145 54.0831 79.3889 56.2882C79.8075 56.8394 80.103 57.4408 80.1276 58.1674C80.1769 59.2198 79.8568 59.8713 79.0934 60.1469C78.2808 60.4476 77.5421 60.172 77.0004 59.2449C76.2124 57.8417 74.9812 57.09 73.553 56.6139C73.0358 56.4636 72.4941 56.4385 71.9524 56.3132C70.992 56.0877 70.2779 55.2608 70.2779 54.3838C70.2779 53.3565 70.7212 52.8804 71.7308 52.7802C72.1001 52.7551 72.4449 52.6799 72.8388 52.6799Z" fill="#23353D"/>
<path d="M79.7829 49.0216C79.7583 49.1469 79.7583 49.3724 79.709 49.5729C79.5613 50.2995 78.9457 50.951 78.2808 51.0011C77.5667 51.0512 77.025 50.6754 76.7295 50.049C76.4094 49.3975 76.1878 48.6959 75.8923 48.0193C75.252 46.5911 74.0947 45.689 72.8881 44.8121C72.174 44.3109 71.9524 43.4339 72.2971 42.607C72.6172 41.8303 73.3067 41.4544 74.1932 41.705C76.04 42.2061 77.3697 43.484 78.4039 45.0125C79.2165 46.1651 79.7829 47.4681 79.7829 49.0216Z" fill="#21343A"/>
<path d="M79.4874 66.5615C79.315 65.6845 78.7979 64.9829 78.3793 64.2563C77.5913 62.9282 76.5078 62.1765 75.1289 61.3497C73.5283 60.3724 71.8046 60.3975 70.0317 60.3724C69.4653 60.3724 67.4707 60.6731 66.7812 61.049C65.944 61.525 65.7963 62.6777 66.3626 63.4544C66.9044 64.2061 67.6677 64.131 68.3572 63.9806C69.8839 63.6549 71.386 63.8052 72.8142 64.2813C74.5133 64.8576 75.5721 66.1355 76.2124 67.8394C76.6802 69.1173 77.1973 69.3929 78.4532 69.0923C79.3643 68.6913 79.7336 67.8144 79.4874 66.5615Z" fill="#283739"/>
<path d="M92.2182 28.9259C92.095 28.6754 92.0212 28.5501 91.6764 28.2995C91.3563 28.0489 90.0759 28.074 89.5834 28.2744C88.9678 28.525 88.9185 29.1514 88.9185 29.7278C88.9185 31.4817 88.8939 35.2653 88.9185 36.9442C89.2632 36.869 89.1648 37.1446 89.4356 37.2448C89.4849 37.2699 89.5587 37.2699 89.608 37.2699C89.608 37.4202 89.6572 37.5706 89.7311 37.7209C90.4452 38.3724 90.7161 39.2745 91.1101 40.1264C91.4302 40.3268 91.3809 40.6526 91.4302 40.9533C91.5533 41.7551 91.4056 42.5569 91.4794 43.3838C91.5287 43.5592 91.5779 43.7847 91.8488 43.7597C92.2182 43.0079 92.2674 41.3792 92.2674 41.3792L92.3167 30.2289C92.3413 30.2289 92.4398 29.3018 92.2182 28.9259Z" fill="#233440"/>
<path d="M88.1305 48.1697C86.3083 47.5182 85.1264 46.3405 84.7816 44.336C84.6339 43.4339 84.7077 42.5319 84.6585 41.6298C84.6339 40.828 84.166 40.2016 83.5504 40.1515C83.0825 40.1264 82.6639 40.2016 82.6639 40.2016C81.9252 40.3269 81.7774 40.9032 81.7282 41.5045C81.6789 42.4316 81.6051 43.3838 81.7528 44.2859C81.876 45.1879 81.8759 45.9146 82.59 47.4931C83.4519 49.4225 85.0771 50.5501 86.9978 51.2266C87.1948 51.2517 87.9582 51.4772 88.0813 51.3269C88.2783 50.6754 88.0567 49.8485 88.5738 49.3724C88.82 49.1469 89.411 48.8713 89.2386 48.4704C88.9431 48.4203 88.4014 48.2699 88.1305 48.1697Z" fill="#223137"/>
<path d="M96.5028 41.0786C96.4781 40.3519 95.8872 39.976 95.1484 39.9009C94.3851 39.8257 93.9172 40.3268 93.7449 40.9032C93.6217 41.279 93.7202 41.705 93.7449 42.1059C93.7941 43.6845 93.6464 45.213 92.686 46.541C91.9227 47.3177 91.0362 47.9442 90.002 48.295C89.7065 48.3952 89.214 48.4453 88.8692 48.4704C88.7461 48.8963 89.4849 49.4476 89.805 49.5979C90.6176 49.6731 90.0758 50.8007 90.5683 51.2016C91.7995 51.4271 93.8926 50.2745 94.7298 49.1469C95.05 48.7209 95.5917 47.7688 95.7887 47.3679C96.7736 45.3884 96.6013 43.2335 96.5028 41.0786Z" fill="#223137"/>
<path d="M88.0566 59.8963C86.2344 59.2449 85.0525 58.0672 84.7077 56.0626C84.56 55.1606 84.6339 54.2585 84.5846 53.3565C84.56 52.5547 84.0921 51.9282 83.4765 51.8781C83.0087 51.8531 82.5901 51.9282 82.5901 51.9282C81.8513 52.0535 81.7036 52.6298 81.6543 53.2312C81.6051 54.1583 81.5312 55.1105 81.679 56.0125C81.8021 56.9146 81.8021 57.6412 82.5162 59.2198C83.378 61.1492 85.0032 62.2768 86.9239 62.9533C87.1209 62.9784 87.8843 63.2039 88.0074 63.0535C88.2044 62.402 87.9828 61.5752 88.4999 61.0991C88.7461 60.8736 89.3371 60.5979 89.1647 60.197C88.8692 60.1469 88.3275 59.9966 88.0566 59.8963Z" fill="#223137"/>
<path d="M96.4289 52.8052C96.4043 52.0786 95.8133 51.7027 95.0746 51.6275C94.3112 51.5524 93.8434 52.0535 93.671 52.6298C93.5479 53.0057 93.6464 53.4317 93.671 53.8326C93.7202 55.4112 93.5725 56.9396 92.6121 58.2676C91.8488 59.0444 90.9623 59.6708 89.9281 60.0216C89.6326 60.1219 89.1401 60.172 88.7954 60.197C88.6723 60.623 89.411 61.1743 89.7311 61.3246C90.5437 61.3998 90.002 62.5273 90.4945 62.9282C91.7257 63.1538 93.8187 62.0011 94.656 60.8736C94.9761 60.4476 95.5178 59.4954 95.7148 59.0945C96.6998 57.115 96.5274 54.9601 96.4289 52.8052Z" fill="#223137"/>
<path d="M89.0909 45.8143C89.214 45.8394 89.2879 45.9146 89.3125 46.0148C89.2386 45.9647 89.1648 45.8895 89.0909 45.8143Z" fill="#8B3217"/>
<path d="M88.7461 45.6139C88.7461 45.664 88.7215 45.7141 88.7215 45.7642C88.6969 45.7392 88.6723 45.7141 88.623 45.689C88.6723 45.689 88.7215 45.664 88.7461 45.6139Z" fill="#8B3217"/>
<path d="M34.8682 97.8577C35.1144 97.6071 35.3607 97.582 35.5823 97.8577C35.3361 97.8577 35.0898 97.8577 34.8682 97.8577Z" fill="#203537"/>
<path d="M18.0498 65.7096C19.1242 65.7096 19.9951 64.8233 19.9951 63.7301C19.9951 62.6368 19.1242 61.7506 18.0498 61.7506C16.9754 61.7506 16.1045 62.6368 16.1045 63.7301C16.1045 64.8233 16.9754 65.7096 18.0498 65.7096Z" fill="#23363C"/>
<path d="M14.2084 53.8827C15.2828 53.8827 16.1537 52.9964 16.1537 51.9032C16.1537 50.8099 15.2828 49.9237 14.2084 49.9237C13.134 49.9237 12.2631 50.8099 12.2631 51.9032C12.2631 52.9964 13.134 53.8827 14.2084 53.8827Z" fill="#23363C"/>
<path d="M18.5915 29.7278C19.6659 29.7278 20.5369 28.8415 20.5369 27.7483C20.5369 26.655 19.6659 25.7688 18.5915 25.7688C17.5172 25.7688 16.6462 26.655 16.6462 27.7483C16.6462 28.8415 17.5172 29.7278 18.5915 29.7278Z" fill="#D9520C"/>
<path d="M59.197 10.5091C60.2714 10.5091 61.1423 9.6228 61.1423 8.52955C61.1423 7.4363 60.2714 6.55005 59.197 6.55005C58.1226 6.55005 57.2517 7.4363 57.2517 8.52955C57.2517 9.6228 58.1226 10.5091 59.197 10.5091Z" fill="#F8A516"/>
<path d="M40.0885 10.4339C41.1629 10.4339 42.0339 9.54763 42.0339 8.45438C42.0339 7.36114 41.1629 6.47488 40.0885 6.47488C39.0142 6.47488 38.1432 7.36114 38.1432 8.45438C38.1432 9.54763 39.0142 10.4339 40.0885 10.4339Z" fill="#F8AF16"/>
<path d="M80.8663 29.6526C81.9407 29.6526 82.8117 28.7663 82.8117 27.6731C82.8117 26.5798 81.9407 25.6936 80.8663 25.6936C79.792 25.6936 78.921 26.5798 78.921 27.6731C78.921 28.7663 79.792 29.6526 80.8663 29.6526Z" fill="#CF4B0C"/>
<path d="M23.3687 66.2358C22.7038 69.3679 23.738 71.4476 23.738 71.4476C23.738 71.4476 27.7025 71.9989 29.7217 69.6936C33.0952 65.8098 30.5836 58.0421 30.5836 58.0421C30.5836 58.0421 29.377 59.3952 27.6779 60.7984C25.708 62.402 23.8858 63.7301 23.3687 66.2358Z" fill="url(#paint0_linear_1_3)"/>
<path d="M23.4671 70.6959L23.738 71.4476C23.738 71.4476 27.7025 71.9989 29.7217 69.6936C31.8394 67.2631 31.6424 63.3041 31.1992 60.6731C31.1992 60.6481 31.1992 60.623 31.1992 60.623C31.1992 60.623 29.968 64.7073 29.0815 66.0103C26.9638 69.0923 23.4671 70.6959 23.4671 70.6959Z" fill="url(#paint1_linear_1_3)"/>
<path d="M18.5177 55.2107C18.1237 58.3929 19.3549 60.3724 19.3549 60.3724C19.3549 60.3724 23.3686 60.5729 25.1662 58.0672C28.195 53.8827 24.9939 46.3656 24.9939 46.3656C24.9939 46.3656 23.935 47.8439 22.3591 49.3724C20.4876 51.1765 18.8132 52.6549 18.5177 55.2107Z" fill="url(#paint2_linear_1_3)"/>
<path d="M19.0101 59.6458L19.3549 60.3724C19.3549 60.3724 23.3686 60.5729 25.1662 58.0672C27.0623 55.4613 26.5206 51.5273 25.8311 48.9465C25.8311 48.9214 25.8065 48.8963 25.8065 48.8963C25.8065 48.8963 24.9446 53.0809 24.1812 54.459C22.3591 57.7164 19.0101 59.6458 19.0101 59.6458Z" fill="url(#paint3_linear_1_3)"/>
<path d="M13.5682 44.4613C13.3958 47.4931 14.6763 49.2972 14.6763 49.2972C14.6763 49.2972 18.4684 49.2221 20.0197 46.7414C22.6053 42.582 19.1086 35.6913 19.1086 35.6913C19.1086 35.6913 18.1975 37.1446 16.794 38.7232C15.1934 40.5273 13.6913 42.0307 13.5682 44.4613Z" fill="url(#paint4_linear_1_3)"/>
<path d="M14.3069 48.6207L14.6763 49.2722C14.6763 49.2722 18.4684 49.197 20.0197 46.7164C21.6449 44.1105 20.8816 40.4271 20.069 38.0467C20.069 38.0216 20.0444 37.9966 20.0444 37.9966C20.0444 37.9966 19.478 42.0307 18.8624 43.3838C17.3603 46.5911 14.3069 48.6207 14.3069 48.6207Z" fill="url(#paint5_linear_1_3)"/>
<path d="M9.89916 45.4886C11.4751 48.0945 11.155 50.2745 11.155 50.2745C11.155 50.2745 7.75685 52.0285 5.24517 50.6002C1.03442 48.1947 0.911293 40.4271 0.911293 40.4271C0.911293 40.4271 2.38875 41.279 4.35869 41.9806C6.62413 42.7824 8.64332 43.4089 9.89916 45.4886Z" fill="url(#paint6_linear_1_3)"/>
<path d="M11.1796 49.5228L11.155 50.2745C11.155 50.2745 7.75685 52.0285 5.24517 50.6002C2.61037 49.0968 1.57615 45.4635 1.15754 42.9829C1.15754 42.9578 1.15754 42.9328 1.15754 42.9328C1.15754 42.9328 3.52147 46.2152 4.70344 47.0922C7.53523 49.197 11.1796 49.5228 11.1796 49.5228Z" fill="url(#paint7_linear_1_3)"/>
<path d="M13.0265 57.3906C15.021 59.8713 15.021 62.2016 15.021 62.2016C15.021 62.2016 11.7214 64.5319 8.91419 63.4043C4.18633 61.5 2.95512 53.4066 2.95512 53.4066C2.95512 53.4066 4.62957 54.0831 6.77188 54.5342C9.23431 55.0603 11.4505 55.4111 13.0265 57.3906Z" fill="url(#paint8_linear_1_3)"/>
<path d="M14.9225 61.4248L15.021 62.2266C15.021 62.2266 11.7214 64.5569 8.9142 63.4294C5.93466 62.2266 4.3587 58.6184 3.57073 56.0626C3.57073 56.0376 3.5461 56.0125 3.5461 56.0125C3.5461 56.0125 6.47639 59.0945 7.83073 59.8462C11.1058 61.6002 14.9225 61.4248 14.9225 61.4248Z" fill="url(#paint9_linear_1_3)"/>
<path d="M17.1387 69.3428C19.7981 71.0718 20.4876 73.3018 20.4876 73.3018C20.4876 73.3018 18.0744 76.5592 15.0456 76.3588C9.9484 76.0581 6.32864 68.7415 6.32864 68.7415C6.32864 68.7415 8.12621 68.8417 10.2931 68.5911C12.8294 68.3155 15.021 67.9647 17.1387 69.3428Z" fill="url(#paint10_linear_1_3)"/>
<path d="M20.1675 72.5752L20.4876 73.3018C20.4876 73.3018 18.0744 76.5592 15.0456 76.3588C11.8445 76.1583 9.2343 73.2267 7.73222 71.0467C7.73222 71.0216 7.7076 70.9966 7.7076 70.9966C7.7076 70.9966 11.4259 73.0011 12.9526 73.2768C16.597 73.9533 20.1675 72.5752 20.1675 72.5752Z" fill="url(#paint11_linear_1_3)"/>
<path d="M6.77188 36.1925C8.00309 38.9738 9.94841 39.951 9.94841 39.951C9.94841 39.951 13.2973 38.0968 13.5436 35.1651C13.9622 30.254 7.73223 25.7688 7.73223 25.7688C7.73223 25.7688 7.58448 27.4977 7.04275 29.5524C6.42714 31.9328 5.78691 33.9624 6.77188 36.1925Z" fill="url(#paint12_linear_1_3)"/>
<path d="M9.16043 38.9738C9.25893 39.3747 9.92379 39.951 9.92379 39.951C9.92379 39.951 13.2727 38.0968 13.5189 35.1651C13.7898 32.0831 11.4259 29.1765 9.65292 27.4225C9.62829 27.3975 9.60367 27.3724 9.60367 27.3724C9.60367 27.3724 10.9334 31.2061 10.9826 32.7095C11.0565 34.9396 9.70217 36.5934 9.18506 37.8462C9.11119 38.0717 9.03731 38.4977 9.16043 38.9738Z" fill="url(#paint13_linear_1_3)"/>
<path d="M29.0322 37.3701C27.5548 37.9715 24.5506 36.8439 23.8611 35.3906C23.5164 34.664 23.7626 33.9874 24.526 33.6366C25.9296 33.0102 28.8599 33.8371 29.7217 35.115C30.3373 36.0421 30.0665 36.9442 29.0322 37.3701Z" fill="#23363C"/>
<path d="M32.1349 32.1332C30.559 32.2836 27.998 30.3041 27.7518 28.7255C27.6287 27.9237 28.0473 27.3473 28.8845 27.2471C30.4112 27.0467 32.9721 28.7004 33.44 30.1788C33.7847 31.2312 33.243 32.0079 32.1349 32.1332Z" fill="#23363C"/>
<path d="M36.3703 27.1218C34.7943 26.8462 32.849 24.2653 32.9968 22.6867C33.0706 21.8599 33.637 21.4339 34.4742 21.5341C36.0009 21.7346 38.0447 24.0148 38.1432 25.5683C38.1925 26.6959 37.4784 27.3223 36.3703 27.1218Z" fill="#23363C"/>
<path d="M42.1816 23.6139C40.7288 22.9874 39.3991 20.0057 39.9162 18.5022C40.187 17.7255 40.8273 17.4248 41.6153 17.7505C43.0435 18.3018 44.5209 21.0079 44.2501 22.5364C44.0531 23.6139 43.2158 24.0649 42.1816 23.6139Z" fill="#23363C"/>
<path d="M48.6086 21.9851C47.6236 20.7323 47.8698 17.4498 49.0272 16.3724C49.6182 15.8211 50.3323 15.8712 50.874 16.5227C51.859 17.7004 51.9082 20.8075 50.9479 22.0102C50.2338 22.9123 49.298 22.8872 48.6086 21.9851Z" fill="#23363C"/>
<path d="M59.5417 18.7779C60.0342 20.3063 58.7045 23.2881 57.2517 23.8895C56.5129 24.1902 55.8727 23.8895 55.5772 23.0877C55.0355 21.6343 56.0697 18.7027 57.3748 17.9009C58.3351 17.3496 59.197 17.7004 59.5417 18.7779Z" fill="#23363C"/>
<path d="M66.6828 23.2129C66.5843 24.8166 64.2942 27.0968 62.7183 27.1218C61.9057 27.1218 61.4132 26.6207 61.4378 25.7437C61.4624 24.1902 63.457 21.8599 64.9837 21.6093C66.0426 21.4339 66.732 22.0603 66.6828 23.2129Z" fill="#23363C"/>
<path d="M72.2725 29.2015C71.7554 30.73 68.9236 32.2836 67.4215 31.8576C66.6335 31.6571 66.3134 31.0057 66.5597 30.1788C67.0029 28.7004 69.5392 26.9965 71.0659 27.1719C72.1247 27.3223 72.6172 28.1241 72.2725 29.2015Z" fill="#23363C"/>
<path d="M76.0154 35.6663C75.1289 37.0193 72.0016 37.746 70.6473 36.9442C69.9578 36.5433 69.7854 35.8166 70.2287 35.115C71.0413 33.787 73.9223 32.8348 75.3505 33.3861C76.3601 33.812 76.631 34.7141 76.0154 35.6663Z" fill="#23363C"/>
<path d="M73.0112 17.7255C71.6569 19.1287 72.2232 20.8576 72.371 21.2084C72.6172 21.8348 74.1439 23.7141 76.5325 23.0626C80.5216 21.935 81.3588 15.746 81.3588 15.746C81.3588 15.746 80.1276 15.8211 78.3301 15.9965C76.237 16.197 74.4148 16.2722 73.0112 17.7255Z" fill="url(#paint14_linear_1_3)"/>
<path d="M72.7404 20.4817C72.4941 20.6321 72.3217 20.8325 72.4202 21.2585C72.5187 21.7847 74.0701 23.7642 76.6556 23.1127C79.1919 22.4863 80.3739 19.8302 80.9895 17.4498C80.9895 17.4248 81.0634 17.1993 81.0634 17.1993C81.0634 17.1993 78.1823 19.4293 77.025 19.9054C75.2767 20.6321 74.9319 20.4567 73.7746 20.4066C73.553 20.3815 73.0358 20.2813 72.7404 20.4817Z" fill="url(#paint15_linear_1_3)"/>
<path d="M65.2546 11.9624C64.6636 13.8416 65.9441 15.1195 66.2149 15.3701C66.7074 15.8211 68.899 16.8234 70.7458 15.1195C73.8238 12.2881 71.8293 6.37466 71.8293 6.37466C71.8293 6.37466 70.7458 7.00108 69.2437 7.97831C67.4708 9.10587 65.8702 10.033 65.2546 11.9624Z" fill="url(#paint16_linear_1_3)"/>
<path d="M66.2149 14.5182C66.0672 14.7687 66.0179 15.0193 66.2642 15.3451C66.5843 15.771 68.8497 16.8485 70.8689 15.0694C72.8389 13.3405 72.7404 10.4589 72.2479 8.02842C72.2479 8.00336 72.1986 7.77785 72.1986 7.77785C72.1986 7.77785 70.5981 11.0854 69.7855 12.0375C68.5542 13.4658 68.1603 13.4658 67.1014 13.9669C66.9044 14.0922 66.3873 14.2425 66.2149 14.5182Z" fill="url(#paint17_linear_1_3)"/>
<path d="M46.4909 7.77785C46.8356 9.70723 48.5347 10.2334 48.904 10.3337C49.5443 10.484 51.9575 10.3337 52.7947 7.9783C54.2229 4.0193 49.7413 -0.265442 49.7413 -0.265442C49.7413 -0.265442 49.0764 0.786952 48.1899 2.3906C47.1311 4.21976 46.1461 5.77329 46.4909 7.77785Z" fill="url(#paint18_linear_1_3)"/>
<path d="M48.5101 9.60701C48.4854 9.90769 48.5593 10.1583 48.9287 10.3337C49.4212 10.5592 51.8836 10.4339 52.8686 7.92819C53.8289 5.4726 52.4007 2.94185 50.8494 1.03752L50.7016 0.837067C50.7016 0.837067 50.8001 4.52044 50.5046 5.74823C50.0614 7.60245 49.7166 7.80291 49.0025 8.73001C48.9287 8.88036 48.5347 9.25621 48.5101 9.60701Z" fill="url(#paint19_linear_1_3)"/>
<path d="M35.1883 11.8872C35.8778 13.7163 34.6712 15.0694 34.425 15.3451C33.9571 15.8211 31.8148 16.9236 29.8941 15.3451C26.6683 12.689 28.3428 6.67534 28.3428 6.67534C28.3428 6.67534 29.4509 7.22659 31.0268 8.12864C32.8244 9.15598 34.4496 9.98286 35.1883 11.8872Z" fill="url(#paint20_linear_1_3)"/>
<path d="M34.3511 14.5182C34.5235 14.7687 34.5973 15.0193 34.3511 15.3451C34.0556 15.7961 31.864 16.9738 29.7463 15.3451C27.6779 13.7414 27.6287 10.8348 27.998 8.37922C27.998 8.35416 28.0226 8.12865 28.0226 8.12865C28.0226 8.12865 29.7956 11.3359 30.6575 12.263C31.9625 13.6412 32.3565 13.6161 33.44 14.0421C33.637 14.0922 34.1541 14.2425 34.3511 14.5182Z" fill="url(#paint21_linear_1_3)"/>
<path d="M26.4467 17.7505C27.7518 19.2038 27.1115 20.9077 26.9638 21.2585C26.6929 21.8849 25.0924 23.7141 22.7284 22.9624C18.7639 21.7095 18.1729 15.4703 18.1729 15.4703C18.1729 15.4703 19.4041 15.5706 21.1771 15.8211C23.2702 16.0968 25.0924 16.2471 26.4467 17.7505Z" fill="url(#paint22_linear_1_3)"/>
<path d="M26.6191 20.5068C26.8653 20.6571 27.013 20.8826 26.9145 21.2836C26.7914 21.8098 25.1908 23.7391 22.6299 22.9874C20.1182 22.2608 19.0348 19.5797 18.493 17.1492C18.493 17.1241 18.4438 16.8986 18.4438 16.8986C18.4438 16.8986 21.251 19.2289 22.3837 19.7551C24.0828 20.5318 24.4521 20.3815 25.6095 20.3815C25.8065 20.3815 26.3236 20.3063 26.6191 20.5068Z" fill="url(#paint23_linear_1_3)"/>
<path d="M35.6315 57.1902C38.8327 55.1856 42.6002 54.033 46.6386 54.033C52.3268 54.033 57.4979 56.3383 61.29 60.0718C61.3393 60.0216 61.4132 59.9715 61.4624 59.9214C65.3038 56.5638 67.7416 51.6025 67.7416 46.0398C67.7416 35.9669 59.7141 27.7984 49.8151 27.7984C39.9162 27.7984 31.8886 35.9669 31.8886 46.0398C31.8886 50.2244 33.2676 54.0581 35.5823 57.1401C35.6069 57.1651 35.6069 57.1902 35.6315 57.1902Z" fill="url(#paint24_linear_1_3)"/>
<path d="M35.6315 57.1902C38.8327 55.1856 42.6002 54.033 46.6386 54.033C52.3268 54.033 57.4979 56.3383 61.29 60.0717C61.3393 60.0216 61.4132 59.9715 61.4624 59.9214C65.3038 56.5638 67.7416 51.6025 67.7416 46.0398C67.7416 42.2562 66.6089 38.7232 64.6636 35.8166C64.6636 35.8166 64.0233 35.0148 57.8426 35.2904C52.376 35.5159 45.9245 37.2448 40.0393 39.4248C35.533 41.1036 32.0856 43.2836 32.0856 43.2836C31.9379 44.1856 31.8886 45.1127 31.8886 46.0649C31.8886 50.2494 33.2676 54.0831 35.5823 57.1651C35.6069 57.1651 35.6069 57.1902 35.6315 57.1902Z" fill="url(#paint25_linear_1_3)"/>
<path d="M35.6315 57.1902C38.8327 55.1856 42.6002 54.033 46.6386 54.033C52.3268 54.033 57.4979 56.3383 61.2901 60.0717C61.3393 60.0216 61.4132 59.9715 61.4624 59.9214C65.2546 56.6139 67.6677 51.7528 67.7416 46.2904C67.7416 46.2904 64.1218 43.3588 53.164 43.2084C42.5263 43.0831 32.1595 49.1218 32.1595 49.1218C32.652 52.1036 33.8586 54.8599 35.6069 57.1651C35.6069 57.1651 35.6069 57.1902 35.6315 57.1902Z" fill="url(#paint26_linear_1_3)"/>
<path d="M35.6315 57.1902C38.8327 55.1856 42.6002 54.033 46.6386 54.033C52.3268 54.033 57.4979 56.3383 61.2901 60.0717C61.3393 60.0216 61.4132 59.9715 61.4624 59.9214C63.5555 58.1173 65.2053 55.8371 66.3134 53.2312C66.3134 53.2312 60.9946 49.0968 51.0956 48.9966C39.7192 48.8713 33.5139 53.6321 33.5139 53.6321C33.5139 53.6321 33.5139 53.6321 33.5139 53.6572C34.0802 54.91 34.7697 56.0877 35.5823 57.1651C35.6069 57.1651 35.6069 57.1902 35.6315 57.1902Z" fill="url(#paint27_linear_1_3)"/>
<path d="M49.6674 100.514C54.1244 100.514 58.8769 97.557 62.9399 96.3543C65.6732 86.8326 50.8494 73.5524 36.9859 73.5524C28.1211 73.5524 20.3152 78.1128 15.7351 85.0536C24.0335 94.5502 36.1487 100.514 49.6674 100.514Z" fill="url(#paint28_linear_1_3)"/>
<path d="M49.6674 100.514C53.558 100.514 57.3502 100.013 60.9453 99.0855C59.8126 88.8622 49.7905 77.0353 37.3306 77.0353C29.2539 77.0353 22.1374 81.1196 17.8528 87.3337C26.0281 95.4773 37.2814 100.514 49.6674 100.514Z" fill="url(#paint29_linear_1_3)"/>
<path d="M49.6674 100.514C53.952 100.514 58.0889 99.9123 62.0042 98.8098C58.5075 90.3406 50.2584 84.4021 40.6057 84.4021C33.8094 84.4021 27.6779 87.3588 23.4425 92.0946C30.8544 97.3816 39.8916 100.514 49.6674 100.514Z" fill="url(#paint30_linear_1_3)"/>
<path d="M26.5206 94.1492C33.2676 98.1834 41.172 100.514 49.5935 100.514C52.9917 100.514 56.316 100.138 59.5171 99.4112C55.6757 93.0217 48.7317 88.762 40.8273 88.762C35.3607 88.762 30.362 90.7916 26.5206 94.1492Z" fill="url(#paint31_linear_1_3)"/>
<path d="M32.3073 96.7552C32.3073 96.7552 38.9558 92.8964 41.172 91.6185C46.6386 88.4613 56.2667 86.1811 56.2667 86.1811L63.2846 88.4112C63.2846 88.4112 64.2942 89.3634 63.9002 89.4385C58.2613 90.5661 49.495 94.475 44.4716 97.0558C39.8669 99.4112 32.3073 96.7552 32.3073 96.7552Z" fill="url(#paint32_linear_1_3)"/>
<path d="M41.9846 98.459C41.9846 98.459 47.7713 95.1014 49.7166 93.9738C54.4691 91.2176 62.866 89.2381 62.866 89.2381L68.9728 91.1674C68.9728 91.1674 69.8347 91.9943 69.5146 92.0444C64.5897 93.0217 56.9562 96.4294 52.5977 98.6845C48.5593 100.789 41.9846 98.459 41.9846 98.459Z" fill="url(#paint33_linear_1_3)"/>
<path d="M92.8338 65.7597C92.3905 65.885 91.9473 67.5137 91.9473 67.5137C91.9473 67.5137 91.5533 66.0604 91.0362 65.7096C90.3713 65.2585 89.5095 65.885 89.4602 66.2107C89.1647 67.664 88.9924 69.6185 88.6476 71.2973C88.4753 71.2472 88.3275 71.197 88.2044 71.1469C86.3822 70.4955 85.2002 69.3178 84.8555 67.3132C84.7077 66.4112 84.7816 65.5091 84.7324 64.6071C84.7077 63.8052 84.2399 63.1788 83.6243 63.1287C83.1564 63.1036 82.7378 63.1788 82.7378 63.1788C81.9991 63.3041 81.8513 63.8804 81.8021 64.4818C81.7528 65.4089 81.679 66.3611 81.8267 67.2631C81.9498 68.1652 81.9498 68.8918 82.6639 70.4704C83.5258 72.3998 85.151 73.5273 87.0717 74.2039C87.1456 74.2039 87.3426 74.254 87.5395 74.3041C86.5299 76.3337 85.4957 78.2882 84.4369 79.9169C83.8459 79.7415 82.4669 78.1879 81.9991 77.7119C80.9649 76.6344 80.0538 75.4066 78.8225 74.5547C78.0592 73.7779 77.2712 73.0763 76.3601 72.4499C74.1685 70.9465 71.7307 69.9693 69.2191 69.2426C65.4516 68.1652 62.1519 66.2608 59.2462 63.5797C56.2913 60.8485 52.9424 58.8189 48.9287 58.0922C47.5989 57.8417 46.2446 57.9169 44.9149 57.7164C44.1023 57.5911 43.3143 58.5683 43.4128 59.3952C43.5359 60.5729 44.0777 61.1492 45.2104 61.2745C46.4909 61.4248 47.7959 61.3998 49.0025 61.8007C51.9821 62.7779 54.5922 64.3565 56.9069 66.5114C59.9603 69.3679 63.457 71.4476 67.4707 72.6504C70.8689 73.6777 74.0947 75.1059 76.7787 77.5615C77.7883 78.6891 78.8472 79.7665 79.709 81.0194C80.1523 81.6709 80.9895 82.598 81.2603 83.4249C80.694 83.8759 79.9799 84.3519 79.1919 84.9032C79.1919 84.9032 79.0442 84.9784 78.7733 85.0786C78.3054 84.5274 77.6898 83.8759 77.1973 83.3497C76.1877 82.2722 73.0358 79.8918 72.568 79.6412C70.3518 78.4135 67.914 77.8873 65.5501 77.1606C65.1807 77.0103 64.8113 76.8349 64.4666 76.6845C63.063 76.0581 61.5855 75.557 60.3297 74.6048C59.5171 73.9784 58.7784 73.2517 57.9411 72.6504C57.5964 72.3998 57.2763 72.1242 56.9562 71.8485C56.0451 71.1219 55.2571 70.2449 54.2229 69.6686C53.2379 68.8918 52.3022 68.0649 51.268 67.3633C49.0518 65.8599 46.614 65.0581 43.9546 64.8326C43.1173 64.7574 42.2801 64.6822 41.4675 64.8075C40.4825 64.9328 39.7438 65.8349 39.8177 66.762C39.8915 67.6891 40.581 68.3907 41.5167 68.3907C45.432 68.3907 48.8055 69.8189 51.7851 72.3246C53.3118 73.6777 54.9616 74.8804 56.3898 76.3588C59.1724 79.2403 63.2107 80.4932 64.7867 80.9442C67.0521 81.5957 69.3176 82.2472 71.386 83.3998C71.6076 83.5752 71.8293 83.7255 72.0262 83.926C72.8881 84.7779 73.9716 85.4294 74.5133 86.582C72.6172 87.0832 70.4257 87.434 68.5296 87.1333C58.2613 85.4294 46.5647 79.0649 38.3402 79.516C30.6821 79.9419 23.8365 83.1993 19.5026 88.9374C20.7585 90.0649 22.0636 91.1173 23.4179 92.0946C27.6533 87.3838 33.7847 84.4021 40.581 84.4021C49.5443 84.4021 48.3869 87.7848 67.2245 91.3679C66.1164 91.844 65.0083 92.3201 63.9002 92.746C56.4883 95.6025 49.2242 96.7301 48.8794 96.7552C42.748 97.131 36.6904 96.9306 31.5193 96.7552C36.3456 98.9602 42.2062 100.589 50.1352 100.589C71.9524 100.589 90.4945 83.926 93.8926 67.8645C94.1881 66.4863 93.8187 65.459 92.8338 65.7597Z" fill="#223137"/>
<path d="M86.1113 43.8098C86.4315 45.5387 87.9582 45.9897 88.2783 46.0649C88.8446 46.1902 90.9869 46.0398 91.7503 43.91C93.0061 40.377 88.9677 36.5683 88.9677 36.5683C88.9677 36.5683 88.3768 37.5205 87.5888 38.9487C86.6777 40.6025 85.7912 42.0057 86.1113 43.8098Z" fill="url(#paint34_linear_1_3)"/>
<path d="M89.1401 46.0649C89.5834 46.2654 91.1101 45.5888 91.8242 43.8599C92.5383 42.131 91.3809 39.4248 89.9773 37.7209L89.8296 37.5455C89.8296 37.5455 89.805 41.1537 89.7065 41.9305C89.4849 43.6344 88.82 45.9146 89.1401 46.0649Z" fill="url(#paint35_linear_1_3)"/>
<path d="M86.2591 55.3109C86.5792 57.0399 88.1059 57.4909 88.426 57.5661C88.9924 57.6913 91.1347 57.541 91.898 55.4112C93.1539 51.8781 89.1155 48.0695 89.1155 48.0695C89.1155 48.0695 88.5245 49.0216 87.7365 50.4499C86.8008 52.1287 85.9143 53.5319 86.2591 55.3109Z" fill="url(#paint36_linear_1_3)"/>
<path d="M89.2879 57.5911C89.7311 57.7916 91.2578 57.115 91.9719 55.3861C92.686 53.6572 91.5287 50.951 90.1251 49.2471L89.9773 49.0717C89.9773 49.0717 89.9527 52.6799 89.8542 53.4567C89.6326 55.1606 88.9431 57.4157 89.2879 57.5911Z" fill="url(#paint37_linear_1_3)"/>
<path d="M86.0621 66.7369C86.3822 68.4658 87.9089 68.9169 88.229 68.992C88.7954 69.1173 90.9377 68.967 91.701 66.8371C92.9569 63.3041 88.9185 59.4954 88.9185 59.4954C88.9185 59.4954 88.3275 60.4476 87.5395 61.8759C86.6284 63.5296 85.742 64.9579 86.0621 66.7369Z" fill="url(#paint38_linear_1_3)"/>
<path d="M89.0909 68.992C89.5341 69.1925 91.0608 68.5159 91.7749 66.787C92.489 65.0581 91.3317 62.3519 89.9281 60.6481L89.7803 60.4727C89.7803 60.4727 89.7557 64.0809 89.6572 64.8576C89.4356 66.5615 88.7707 68.8417 89.0909 68.992Z" fill="url(#paint39_linear_1_3)"/>
<path d="M8.98806 105.976C9.94841 106.803 10.564 107.931 10.564 109.158C10.564 109.609 10.17 109.96 9.65292 109.96H8.22471C7.73222 109.96 7.33823 109.609 7.33823 109.158C7.33823 108.757 7.14124 108.382 6.7965 108.106C6.42713 107.805 5.93465 107.605 5.34366 107.605C4.77731 107.605 4.2602 107.78 3.89083 108.106C3.54609 108.382 3.3491 108.757 3.3491 109.158C3.3491 110.562 4.87581 111.739 6.37789 112.892C8.47095 114.495 10.564 116.074 10.564 118.83C10.564 120.083 9.94841 121.211 8.98806 122.013C8.05234 122.814 6.74725 123.29 5.34366 123.29C3.94008 123.29 2.65962 122.789 1.72389 122.013C0.738923 121.211 0.147942 120.058 0.147942 118.83C0.147942 118.63 0.246436 118.404 0.418806 118.254C0.591177 118.104 0.812795 118.029 1.03441 118.029H2.48725C2.70887 118.029 2.95511 118.104 3.10286 118.254C3.27523 118.404 3.37372 118.63 3.37372 118.83C3.37372 119.256 3.57072 119.632 3.91546 119.908C4.28482 120.208 4.77731 120.409 5.36829 120.409C5.95927 120.409 6.47638 120.208 6.82112 119.908C7.16586 119.632 7.36286 119.256 7.36286 118.83C7.36286 117.427 5.83615 116.275 4.33407 115.122C2.24101 113.518 0.147942 111.94 0.147942 109.183C0.147942 107.931 0.763547 106.803 1.72389 106.001C2.65962 105.224 3.9647 104.723 5.34366 104.723C6.77187 104.698 8.05234 105.199 8.98806 105.976Z" fill="#223137"/>
<path d="M15.2426 104.598C15.4396 104.598 15.6612 104.673 15.809 104.823C15.9814 104.949 16.0552 105.149 16.0552 105.35V118.53C16.0552 119.031 16.2768 119.507 16.6462 119.833C16.991 120.158 17.5081 120.359 18.0498 120.359C18.5915 120.359 19.1086 120.158 19.4534 119.833C19.8228 119.507 20.0444 119.031 20.0444 118.53V105.35C20.0444 105.149 20.1182 104.949 20.2906 104.823C20.4384 104.673 20.6353 104.598 20.857 104.598H22.4575C22.6792 104.598 22.8762 104.673 23.0239 104.823C23.1717 104.949 23.2455 105.149 23.2455 105.35V118.53C23.2455 119.858 22.6792 121.035 21.7188 121.912C20.7831 122.764 19.478 123.316 18.0498 123.316C16.6216 123.316 15.3165 122.789 14.3808 121.912C13.4451 121.035 12.8541 119.858 12.8541 118.53V105.35C12.8541 105.149 12.9279 104.949 13.0757 104.823C13.2234 104.673 13.4451 104.598 13.6421 104.598H15.2426Z" fill="#223137"/>
<path d="M28.2443 104.698C28.6136 104.698 28.9584 104.924 29.0815 105.249C29.6725 106.828 31.3962 111.413 32.2088 113.568C32.2334 113.644 32.3319 113.719 32.455 113.694C32.5535 113.669 32.652 113.593 32.652 113.493V105.5C32.652 105.049 33.046 104.698 33.5385 104.698H34.9913C35.4838 104.698 35.8778 105.074 35.8778 105.5V122.288C35.8778 122.564 35.7547 122.814 35.533 123.015C35.3361 123.19 35.0406 123.316 34.7451 123.316H33.4646C32.9721 123.316 32.5535 123.04 32.3811 122.614C31.7409 120.91 30.1157 116.525 29.3277 114.42C29.2785 114.345 29.2046 114.27 29.0815 114.295C28.983 114.32 28.8845 114.395 28.8845 114.495V122.514C28.8845 122.739 28.786 122.94 28.6136 123.09C28.4413 123.24 28.2196 123.316 27.998 123.316H26.5452C26.0527 123.316 25.6587 122.965 25.6587 122.514V105.5C25.6587 105.049 26.0527 104.698 26.5452 104.698H28.2443Z" fill="#223137"/>
<path d="M57.1532 106.076C58.0889 106.953 58.6799 108.131 58.6799 109.434V109.484C58.6799 109.935 58.2859 110.311 57.7934 110.311H56.3652C55.8727 110.311 55.4787 109.935 55.4787 109.484V109.434C55.4787 108.933 55.2571 108.482 54.8877 108.156C54.5184 107.83 54.0259 107.63 53.4842 107.63C52.9424 107.63 52.4253 107.83 52.0806 108.156C51.7112 108.482 51.5142 108.933 51.5142 109.434V118.58C51.5142 119.457 52.0067 120.008 52.6223 120.208C52.8932 120.309 53.1887 120.359 53.4842 120.359C53.7796 120.359 54.0998 120.309 54.346 120.208C54.9862 119.983 55.4787 119.432 55.4787 118.58V116.199C55.4787 115.999 55.3802 115.773 55.2079 115.648C55.0355 115.498 54.8139 115.423 54.5922 115.423H54.3706C54.149 115.423 53.9028 115.347 53.755 115.172C53.5827 115.022 53.4842 114.821 53.4842 114.621V113.293C53.4842 112.842 53.8781 112.491 54.3706 112.491H57.818C58.0396 112.491 58.2859 112.566 58.4583 112.716C58.6306 112.867 58.7045 113.092 58.7045 113.293V118.58V122.439C58.7045 122.89 58.3105 123.24 57.818 123.24H55.7988C55.6265 123.24 55.4787 123.115 55.4787 122.94C54.8385 123.165 54.149 123.29 53.4842 123.29C52.7947 123.29 52.0806 123.165 51.4157 122.915C49.6674 122.263 48.2638 120.81 48.2638 118.555V109.409C48.2638 108.106 48.8548 106.903 49.7905 106.051C50.7262 105.199 52.0313 104.648 53.4595 104.648C54.8877 104.648 56.1928 105.224 57.1532 106.076Z" fill="#223137"/>
<path d="M66.0918 104.648C67.52 104.648 68.8251 105.174 69.7608 106.051C70.6965 106.903 71.2875 108.106 71.2875 109.409V111.965C71.2875 113.819 69.6377 116.224 67.6185 116.625C67.52 116.625 67.4461 116.675 67.4215 116.776C67.3722 116.851 67.3969 116.926 67.4461 117.001C68.0863 117.928 69.9578 120.66 71.0413 122.213C71.189 122.439 71.189 122.714 71.0659 122.94C70.9181 123.165 70.6473 123.316 70.3764 123.316H68.5296C68.2587 123.316 68.0125 123.19 67.8647 122.99C67.1506 121.937 64.9837 118.78 64.2942 117.778C64.2696 117.753 64.2203 117.728 64.1711 117.753C64.1218 117.753 64.0972 117.803 64.0972 117.853V122.614C64.0972 123.015 63.7525 123.341 63.3092 123.341H61.6594C61.4378 123.341 61.2408 123.265 61.093 123.14C60.9453 123.015 60.8714 122.814 60.8714 122.614C60.8714 119.657 60.8714 108.357 60.8714 105.375C60.8714 104.974 61.2408 104.648 61.6594 104.648H66.0918ZM64.8606 107.58C64.442 107.58 64.0726 107.906 64.0726 108.306V113.067C64.0726 113.468 64.4173 113.769 64.8606 113.769H66.0918C66.6335 113.769 67.1506 113.568 67.4954 113.243C67.8647 112.917 68.0864 112.466 68.0864 111.965V109.409C68.0864 108.908 67.8647 108.457 67.4954 108.131C66.9783 107.63 66.3626 107.58 65.6978 107.58C65.4023 107.555 65.1561 107.58 64.8606 107.58Z" fill="#223137"/>
<path d="M80.3492 104.698C80.694 104.698 80.9649 104.899 81.0387 105.199C81.679 107.78 84.6092 119.382 85.3972 122.514C85.4465 122.714 85.3972 122.915 85.2741 123.065C85.151 123.215 84.9294 123.316 84.7324 123.316H82.8855C82.5654 123.316 82.2699 123.115 82.1961 122.814C81.9991 122.038 81.6297 120.534 81.4327 119.858C81.3835 119.657 81.2111 119.532 80.9649 119.532H77.5421C77.3205 119.532 77.1481 119.657 77.0742 119.858C76.9018 120.509 76.5325 122.013 76.3355 122.814C76.2616 123.115 75.9661 123.316 75.646 123.316H73.7992C73.5776 123.316 73.3806 123.24 73.2575 123.065C73.1343 122.915 73.0605 122.714 73.1343 122.514C73.9223 119.382 76.8526 107.755 77.4928 105.199C77.5667 104.899 77.8622 104.698 78.1823 104.698H80.3492ZM78.9703 112.416C78.6994 113.543 78.2808 115.197 78.0592 116.049C78.0099 116.174 78.0592 116.3 78.1331 116.425C78.2316 116.525 78.3547 116.575 78.5024 116.575H80.0045C80.1522 116.575 80.2754 116.525 80.3739 116.425C80.4477 116.325 80.497 116.174 80.4477 116.049C80.2508 115.197 79.8075 113.543 79.5366 112.416C79.512 112.29 79.3643 112.19 79.2412 112.19C79.118 112.19 78.9949 112.29 78.9703 112.416Z" fill="#223137"/>
<path d="M89.5587 104.698C89.7803 104.698 90.0266 104.773 90.199 104.949C90.3713 105.099 90.4452 105.3 90.4452 105.525V122.514C90.4452 122.714 90.3467 122.94 90.199 123.09C90.0266 123.24 89.805 123.316 89.5587 123.316H88.1305C87.8843 123.316 87.6627 123.24 87.4903 123.09C87.3179 122.94 87.2194 122.714 87.2194 122.514V105.525C87.2194 105.3 87.3179 105.099 87.4903 104.949C87.6627 104.798 87.8843 104.698 88.1305 104.698H89.5587Z" fill="#223137"/>
<path d="M95.1977 104.698C95.5671 104.698 95.9118 104.924 96.0349 105.249C96.6259 106.828 98.3496 111.413 99.1622 113.568C99.1868 113.644 99.2853 113.719 99.4085 113.694C99.507 113.669 99.6055 113.593 99.6055 113.493V105.5C99.6055 105.049 99.9994 104.698 100.492 104.698H101.945C102.437 104.698 102.831 105.074 102.831 105.5V122.288C102.831 122.564 102.708 122.814 102.487 123.015C102.29 123.19 101.994 123.316 101.699 123.316H100.418C99.9256 123.316 99.507 123.04 99.3346 122.614C98.6943 120.91 97.0692 116.525 96.2812 114.42C96.2319 114.345 96.1581 114.27 96.0349 114.295C95.9364 114.32 95.8379 114.395 95.8379 114.495V122.514C95.8379 122.739 95.7394 122.94 95.5671 123.09C95.3947 123.24 95.1731 123.316 94.9515 123.316H93.4986C93.0061 123.316 92.6122 122.965 92.6122 122.514V105.5C92.6122 105.049 93.0061 104.698 93.4986 104.698H95.1977Z" fill="#223137"/>
</g>
<defs>
<linearGradient id="paint0_linear_1_3" x1="30.9834" y1="60.2442" x2="24.8704" y2="70.1776" gradientUnits="userSpaceOnUse">
<stop stop-color="#DB5C15"/>
<stop offset="1" stop-color="#D44F12"/>
</linearGradient>
<linearGradient id="paint1_linear_1_3" x1="32.0253" y1="61.1214" x2="25.143" y2="72.305" gradientUnits="userSpaceOnUse">
<stop stop-color="#9D310E"/>
<stop offset="1" stop-color="#6D251B"/>
</linearGradient>
<linearGradient id="paint2_linear_1_3" x1="25.5778" y1="48.5494" x2="20.3834" y2="59.0104" gradientUnits="userSpaceOnUse">
<stop stop-color="#DB5C15"/>
<stop offset="1" stop-color="#D44F12"/>
</linearGradient>
<linearGradient id="paint3_linear_1_3" x1="26.6929" y1="49.3279" x2="20.8448" y2="61.1054" gradientUnits="userSpaceOnUse">
<stop stop-color="#9D310E"/>
<stop offset="1" stop-color="#6D251B"/>
</linearGradient>
<linearGradient id="paint4_linear_1_3" x1="19.83" y1="37.6994" x2="15.5885" y2="47.9544" gradientUnits="userSpaceOnUse">
<stop stop-color="#DB5C15"/>
<stop offset="1" stop-color="#D44F12"/>
</linearGradient>
<linearGradient id="paint5_linear_1_3" x1="20.9355" y1="38.3636" x2="16.1602" y2="49.9092" gradientUnits="userSpaceOnUse">
<stop stop-color="#9D310E"/>
<stop offset="1" stop-color="#6D251B"/>
</linearGradient>
<linearGradient id="paint6_linear_1_3" x1="1.22983" y1="42.536" x2="9.76225" y2="49.4947" gradientUnits="userSpaceOnUse">
<stop stop-color="#DB5C15"/>
<stop offset="1" stop-color="#D44F12"/>
</linearGradient>
<linearGradient id="paint7_linear_1_3" x1="0.563858" y1="43.6529" x2="10.1701" y2="51.4874" gradientUnits="userSpaceOnUse">
<stop stop-color="#9D310E"/>
<stop offset="1" stop-color="#6D251B"/>
</linearGradient>
<linearGradient id="paint8_linear_1_3" x1="3.56613" y1="55.5765" x2="13.439" y2="61.6126" gradientUnits="userSpaceOnUse">
<stop stop-color="#DB5C15"/>
<stop offset="1" stop-color="#D44F12"/>
</linearGradient>
<linearGradient id="paint9_linear_1_3" x1="3.02807" y1="56.839" x2="14.1434" y2="63.6347" gradientUnits="userSpaceOnUse">
<stop stop-color="#9D310E"/>
<stop offset="1" stop-color="#6D251B"/>
</linearGradient>
<linearGradient id="paint10_linear_1_3" x1="7.59276" y1="70.6089" x2="18.7995" y2="73.3098" gradientUnits="userSpaceOnUse">
<stop stop-color="#DB5C15"/>
<stop offset="1" stop-color="#D44F12"/>
</linearGradient>
<linearGradient id="paint11_linear_1_3" x1="7.46695" y1="71.979" x2="20.0841" y2="75.0198" gradientUnits="userSpaceOnUse">
<stop stop-color="#9D310E"/>
<stop offset="1" stop-color="#6D251B"/>
</linearGradient>
<linearGradient id="paint12_linear_1_3" x1="9.27338" y1="27.2407" x2="10.3141" y2="38.3155" gradientUnits="userSpaceOnUse">
<stop stop-color="#FAB715"/>
<stop offset="0.5116" stop-color="#F7A40E"/>
<stop offset="1" stop-color="#D87007"/>
</linearGradient>
<linearGradient id="paint13_linear_1_3" x1="10.4947" y1="27.3185" x2="11.6664" y2="39.7871" gradientUnits="userSpaceOnUse">
<stop stop-color="#D87007"/>
<stop offset="0.5051" stop-color="#CA4F10"/>
<stop offset="1" stop-color="#AD380F"/>
</linearGradient>
<linearGradient id="paint14_linear_1_3" x1="80.8426" y1="17.3069" x2="73.6388" y2="21.149" gradientUnits="userSpaceOnUse">
<stop stop-color="#FAB715"/>
<stop offset="0.5116" stop-color="#F7A40E"/>
<stop offset="1" stop-color="#D87007"/>
</linearGradient>
<linearGradient id="paint15_linear_1_3" x1="81.6831" y1="18.401" x2="73.2581" y2="22.8943" gradientUnits="userSpaceOnUse">
<stop stop-color="#D87007"/>
<stop offset="0.5051" stop-color="#CA4F10"/>
<stop offset="1" stop-color="#C44210"/>
</linearGradient>
<linearGradient id="paint16_linear_1_3" x1="72.0552" y1="7.99724" x2="67.2933" y2="14.7064" gradientUnits="userSpaceOnUse">
<stop stop-color="#FAB715"/>
<stop offset="0.5116" stop-color="#F7A40E"/>
<stop offset="1" stop-color="#D87007"/>
</linearGradient>
<linearGradient id="paint17_linear_1_3" x1="73.2881" y1="8.59219" x2="67.7191" y2="16.4386" gradientUnits="userSpaceOnUse">
<stop stop-color="#D87007"/>
<stop offset="0.5051" stop-color="#CA4F10"/>
<stop offset="1" stop-color="#C44210"/>
</linearGradient>
<linearGradient id="paint18_linear_1_3" x1="50.6822" y1="1.03809" x2="49.6465" y2="9.2456" gradientUnits="userSpaceOnUse">
<stop stop-color="#FAB715"/>
<stop offset="0.5116" stop-color="#F7A40E"/>
<stop offset="1" stop-color="#D87007"/>
</linearGradient>
<linearGradient id="paint19_linear_1_3" x1="52.0455" y1="0.978601" x2="50.8342" y2="10.5774" gradientUnits="userSpaceOnUse">
<stop stop-color="#D87007"/>
<stop offset="0.5051" stop-color="#CA4F10"/>
<stop offset="1" stop-color="#C44210"/>
</linearGradient>
<linearGradient id="paint20_linear_1_3" x1="28.1667" y1="8.32125" x2="33.2834" y2="14.7545" gradientUnits="userSpaceOnUse">
<stop stop-color="#FAB715"/>
<stop offset="0.5116" stop-color="#F7A40E"/>
<stop offset="1" stop-color="#D87007"/>
</linearGradient>
<linearGradient id="paint21_linear_1_3" x1="26.9673" y1="8.98358" x2="32.9514" y2="16.5073" gradientUnits="userSpaceOnUse">
<stop stop-color="#D87007"/>
<stop offset="0.5051" stop-color="#CA4F10"/>
<stop offset="1" stop-color="#C44210"/>
</linearGradient>
<linearGradient id="paint22_linear_1_3" x1="18.6336" y1="17.0205" x2="25.6975" y2="21.1217" gradientUnits="userSpaceOnUse">
<stop stop-color="#FAB715"/>
<stop offset="0.5116" stop-color="#F7A40E"/>
<stop offset="1" stop-color="#D87007"/>
</linearGradient>
<linearGradient id="paint23_linear_1_3" x1="17.7547" y1="18.0826" x2="26.0161" y2="22.879" gradientUnits="userSpaceOnUse">
<stop stop-color="#D87007"/>
<stop offset="0.5051" stop-color="#CA4F10"/>
<stop offset="1" stop-color="#C44210"/>
</linearGradient>
<linearGradient id="paint24_linear_1_3" x1="32.2214" y1="41.6626" x2="67.9248" y2="44.9803" gradientUnits="userSpaceOnUse">
<stop stop-color="#F3A313"/>
<stop offset="0.5116" stop-color="#FDC221"/>
<stop offset="1" stop-color="#F3A313"/>
</linearGradient>
<linearGradient id="paint25_linear_1_3" x1="31.9284" y1="44.8151" x2="67.6318" y2="48.1328" gradientUnits="userSpaceOnUse">
<stop stop-color="#EA770C"/>
<stop offset="0.5116" stop-color="#F38910"/>
<stop offset="1" stop-color="#C35011"/>
</linearGradient>
<linearGradient id="paint26_linear_1_3" x1="36.9884" y1="49.7194" x2="63.8685" y2="52.0803" gradientUnits="userSpaceOnUse">
<stop stop-color="#E05710"/>
<stop offset="0.5116" stop-color="#E55B12"/>
<stop offset="1" stop-color="#9E3114"/>
</linearGradient>
<linearGradient id="paint27_linear_1_3" x1="38.4988" y1="52.7738" x2="61.1593" y2="54.8795" gradientUnits="userSpaceOnUse">
<stop stop-color="#C7430F"/>
<stop offset="0.5116" stop-color="#CE450F"/>
<stop offset="1" stop-color="#7C2A18"/>
</linearGradient>
<linearGradient id="paint28_linear_1_3" x1="15.7243" y1="87.041" x2="63.2639" y2="87.041" gradientUnits="userSpaceOnUse">
<stop stop-color="#D15E0A"/>
<stop offset="0.2877" stop-color="#E98215"/>
<stop offset="0.5116" stop-color="#FBB71F"/>
<stop offset="0.8084" stop-color="#EA8A0C"/>
<stop offset="1" stop-color="#E05710"/>
</linearGradient>
<linearGradient id="paint29_linear_1_3" x1="17.8511" y1="88.7704" x2="60.9496" y2="88.7704" gradientUnits="userSpaceOnUse">
<stop stop-color="#CB420E"/>
<stop offset="0.5116" stop-color="#D64C11"/>
<stop offset="1" stop-color="#C94214"/>
</linearGradient>
<linearGradient id="paint30_linear_1_3" x1="23.4393" y1="92.447" x2="62.0034" y2="92.447" gradientUnits="userSpaceOnUse">
<stop stop-color="#DD6014"/>
<stop offset="0.5116" stop-color="#FDB620"/>
<stop offset="1" stop-color="#F8AC19"/>
</linearGradient>
<linearGradient id="paint31_linear_1_3" x1="26.5287" y1="94.6409" x2="59.5077" y2="94.6409" gradientUnits="userSpaceOnUse">
<stop stop-color="#BE440E"/>
<stop offset="0.5116" stop-color="#E4650E"/>
<stop offset="1" stop-color="#E46F0B"/>
</linearGradient>
<linearGradient id="paint32_linear_1_3" x1="32.3043" y1="92.0975" x2="63.9948" y2="92.0975" gradientUnits="userSpaceOnUse">
<stop offset="0.1793" stop-color="#66271B"/>
<stop offset="0.4372" stop-color="#902A08"/>
<stop offset="0.7633" stop-color="#C8430E"/>
<stop offset="1" stop-color="#E35313"/>
</linearGradient>
<linearGradient id="paint33_linear_1_3" x1="41.9859" y1="94.4096" x2="69.5928" y2="94.4096" gradientUnits="userSpaceOnUse">
<stop offset="0.294" stop-color="#782516"/>
<stop offset="0.5763" stop-color="#AF3411"/>
<stop offset="1" stop-color="#DD4112"/>
</linearGradient>
<linearGradient id="paint34_linear_1_3" x1="89.8303" y1="37.7582" x2="88.97" y2="45.0923" gradientUnits="userSpaceOnUse">
<stop stop-color="#FAB715"/>
<stop offset="0.5116" stop-color="#F7A40E"/>
<stop offset="1" stop-color="#D87007"/>
</linearGradient>
<linearGradient id="paint35_linear_1_3" x1="91.3546" y1="37.7305" x2="90.3583" y2="46.2243" gradientUnits="userSpaceOnUse">
<stop stop-color="#B3440D"/>
<stop offset="0.5051" stop-color="#CA4F10"/>
<stop offset="1" stop-color="#69271B"/>
</linearGradient>
<linearGradient id="paint36_linear_1_3" x1="89.9607" y1="49.2705" x2="89.1004" y2="56.6046" gradientUnits="userSpaceOnUse">
<stop stop-color="#FAB715"/>
<stop offset="0.5116" stop-color="#F7A40E"/>
<stop offset="1" stop-color="#D87007"/>
</linearGradient>
<linearGradient id="paint37_linear_1_3" x1="91.4851" y1="49.2429" x2="90.4887" y2="57.7367" gradientUnits="userSpaceOnUse">
<stop stop-color="#B3440D"/>
<stop offset="0.5051" stop-color="#CA4F10"/>
<stop offset="1" stop-color="#69271B"/>
</linearGradient>
<linearGradient id="paint38_linear_1_3" x1="89.7838" y1="60.6897" x2="88.9235" y2="68.0238" gradientUnits="userSpaceOnUse">
<stop stop-color="#FAB715"/>
<stop offset="0.5116" stop-color="#F7A40E"/>
<stop offset="1" stop-color="#D87007"/>
</linearGradient>
<linearGradient id="paint39_linear_1_3" x1="91.3082" y1="60.662" x2="90.3118" y2="69.1558" gradientUnits="userSpaceOnUse">
<stop stop-color="#B3440D"/>
<stop offset="0.5051" stop-color="#CA4F10"/>
<stop offset="1" stop-color="#69271B"/>
</linearGradient>
<clipPath id="clip0_1_3">
<rect width="103" height="123" fill="white"/>
</clipPath>
</defs>
</svg>
