<svg width="318" height="380" viewBox="0 0 318 380" fill="none" xmlns="http://www.w3.org/2000/svg">
<g clip-path="url(#clip0_8_118)">
<path d="M224.881 162.643C233.092 162.566 239.934 166.975 245.104 173.783C246.396 175.485 247.308 177.341 247.384 179.585C247.536 182.834 246.548 184.845 244.191 185.696C241.683 186.625 239.402 185.774 237.729 182.911C235.297 178.579 231.495 176.258 227.086 174.789C225.489 174.324 223.817 174.247 222.144 173.86C219.179 173.164 216.975 170.611 216.975 167.903C216.975 164.732 218.343 163.262 221.46 162.952C222.6 162.875 223.665 162.643 224.881 162.643Z" fill="white"/>
<path d="M246.32 151.348C246.244 151.735 246.244 152.431 246.092 153.05C245.636 155.294 243.735 157.305 241.683 157.46C239.478 157.614 237.805 156.454 236.893 154.52C235.905 152.509 235.22 150.343 234.308 148.254C232.332 143.844 228.758 141.059 225.033 138.352C222.828 136.805 222.144 134.097 223.209 131.544C224.197 129.146 226.326 127.985 229.062 128.759C234.764 130.306 238.87 134.252 242.063 138.971C244.571 142.529 246.32 146.552 246.32 151.348Z" fill="white"/>
<path d="M245.408 205.501C244.876 202.793 243.279 200.627 241.987 198.383C239.554 194.283 236.209 191.962 231.951 189.41C227.01 186.393 221.688 186.47 216.214 186.393C214.466 186.393 208.308 187.321 206.179 188.481C203.594 189.951 203.138 193.51 204.887 195.908C206.559 198.229 208.916 197.997 211.045 197.532C215.758 196.527 220.396 196.991 224.805 198.461C230.051 200.24 233.32 204.185 235.296 209.446C236.741 213.391 238.337 214.242 242.215 213.314C245.028 212.076 246.168 209.369 245.408 205.501Z" fill="white"/>
<path d="M284.712 89.3053C284.332 88.5317 284.104 88.1449 283.04 87.3713C282.051 86.5977 278.098 86.675 276.578 87.2939C274.677 88.0675 274.525 90.0015 274.525 91.7808C274.525 97.196 274.449 108.877 274.525 114.061C275.589 113.829 275.285 114.679 276.122 114.989C276.274 115.066 276.502 115.066 276.654 115.066C276.654 115.53 276.806 115.995 277.034 116.459C279.239 118.47 280.075 121.255 281.291 123.885C282.28 124.504 282.127 125.51 282.28 126.438C282.66 128.914 282.203 131.389 282.432 133.942C282.584 134.484 282.736 135.18 283.572 135.103C284.712 132.782 284.864 127.753 284.864 127.753L285.016 93.328C285.092 93.328 285.397 90.4657 284.712 89.3053Z" fill="white"/>
<path d="M272.092 148.718C266.466 146.707 262.817 143.071 261.753 136.882C261.297 134.097 261.525 131.312 261.373 128.527C261.297 126.051 259.852 124.117 257.952 123.963C256.507 123.885 255.215 124.117 255.215 124.117C252.934 124.504 252.478 126.284 252.326 128.14C252.174 131.003 251.946 133.942 252.402 136.727C252.782 139.512 252.782 141.756 254.987 146.629C257.647 152.586 262.665 156.067 268.595 158.156C269.203 158.233 271.56 158.93 271.94 158.465C272.548 156.454 271.864 153.901 273.461 152.431C274.221 151.735 276.045 150.884 275.513 149.646C274.601 149.492 272.928 149.028 272.092 148.718Z" fill="white"/>
<path d="M297.94 126.825C297.864 124.582 296.04 123.421 293.759 123.189C291.402 122.957 289.958 124.504 289.426 126.284C289.046 127.444 289.35 128.759 289.426 129.997C289.578 134.871 289.122 139.59 286.157 143.69C283.8 146.088 281.063 148.022 277.87 149.105C276.958 149.414 275.437 149.569 274.373 149.646C273.993 150.962 276.274 152.663 277.262 153.128C279.771 153.36 278.098 156.841 279.619 158.079C283.42 158.775 289.882 155.216 292.467 151.735C293.455 150.42 295.128 147.48 295.736 146.243C298.777 140.131 298.245 133.478 297.94 126.825Z" fill="white"/>
<path d="M271.864 184.923C266.238 182.911 262.589 179.275 261.525 173.087C261.069 170.302 261.297 167.517 261.145 164.732C261.069 162.256 259.624 160.322 257.724 160.167C256.279 160.09 254.987 160.322 254.987 160.322C252.706 160.709 252.25 162.488 252.098 164.345C251.946 167.207 251.718 170.147 252.174 172.932C252.554 175.717 252.554 177.96 254.759 182.834C257.419 188.791 262.437 192.272 268.367 194.361C268.975 194.438 271.332 195.134 271.712 194.67C272.32 192.659 271.636 190.106 273.233 188.636C273.993 187.94 275.817 187.089 275.285 185.851C274.373 185.696 272.7 185.232 271.864 184.923Z" fill="white"/>
<path d="M297.712 163.03C297.636 160.786 295.812 159.626 293.531 159.394C291.174 159.162 289.73 160.709 289.198 162.488C288.818 163.649 289.122 164.964 289.198 166.201C289.35 171.075 288.894 175.794 285.929 179.894C283.572 182.292 280.835 184.226 277.642 185.309C276.73 185.619 275.209 185.774 274.145 185.851C273.765 187.166 276.045 188.868 277.034 189.332C279.543 189.564 277.87 193.046 279.391 194.283C283.192 194.98 289.654 191.421 292.239 187.94C293.227 186.625 294.9 183.685 295.508 182.447C298.549 176.336 298.017 169.683 297.712 163.03Z" fill="white"/>
<path d="M275.057 141.446C275.437 141.524 275.665 141.756 275.741 142.065C275.513 141.91 275.285 141.678 275.057 141.446Z" fill="white"/>
<path d="M273.993 140.827C273.993 140.982 273.917 141.137 273.917 141.291C273.841 141.214 273.765 141.137 273.613 141.059C273.765 141.059 273.917 140.982 273.993 140.827Z" fill="white"/>
<path d="M107.651 302.124C108.412 301.35 109.172 301.273 109.856 302.124C109.096 302.124 108.336 302.124 107.651 302.124Z" fill="white"/>
<path d="M55.7266 202.87C59.0436 202.87 61.7326 200.134 61.7326 196.759C61.7326 193.384 59.0436 190.647 55.7266 190.647C52.4096 190.647 49.7207 193.384 49.7207 196.759C49.7207 200.134 52.4096 202.87 55.7266 202.87Z" fill="white"/>
<path d="M43.8668 166.356C47.1838 166.356 49.8727 163.62 49.8727 160.245C49.8727 156.869 47.1838 154.133 43.8668 154.133C40.5498 154.133 37.8608 156.869 37.8608 160.245C37.8608 163.62 40.5498 166.356 43.8668 166.356Z" fill="white"/>
<path d="M57.399 91.7808C60.716 91.7808 63.405 89.0446 63.405 85.6694C63.405 82.2941 60.716 79.5579 57.399 79.5579C54.082 79.5579 51.3931 82.2941 51.3931 85.6694C51.3931 89.0446 54.082 91.7808 57.399 91.7808Z" fill="white"/>
<path d="M182.763 32.4454C186.08 32.4454 188.769 29.7092 188.769 26.334C188.769 22.9587 186.08 20.2225 182.763 20.2225C179.447 20.2225 176.758 22.9587 176.758 26.334C176.758 29.7092 179.447 32.4454 182.763 32.4454Z" fill="white"/>
<path d="M123.768 32.2133C127.085 32.2133 129.774 29.4772 129.774 26.1019C129.774 22.7266 127.085 19.9904 123.768 19.9904C120.451 19.9904 117.762 22.7266 117.762 26.1019C117.762 29.4772 120.451 32.2133 123.768 32.2133Z" fill="white"/>
<path d="M249.665 91.5488C252.982 91.5488 255.671 88.8126 255.671 85.4373C255.671 82.062 252.982 79.3258 249.665 79.3258C246.348 79.3258 243.659 82.062 243.659 85.4373C243.659 88.8126 246.348 91.5488 249.665 91.5488Z" fill="white"/>
<path d="M72.1477 204.495C70.095 214.165 73.2881 220.586 73.2881 220.586C73.2881 220.586 85.528 222.288 91.762 215.171C102.177 203.18 94.4229 179.198 94.4229 179.198C94.4229 179.198 90.6977 183.376 85.452 187.708C79.37 192.659 73.7442 196.759 72.1477 204.495Z" fill="white"/>
<path d="M72.4519 218.265L73.2882 220.586C73.2882 220.586 85.5281 222.288 91.7621 215.171C98.3002 207.667 97.692 195.444 96.3236 187.321C96.3236 187.244 96.3236 187.166 96.3236 187.166C96.3236 187.166 92.5224 199.776 89.7855 203.799C83.2474 213.314 72.4519 218.265 72.4519 218.265Z" fill="white"/>
<path d="M57.171 170.456C55.9546 180.281 59.7558 186.393 59.7558 186.393C59.7558 186.393 72.1478 187.011 77.6976 179.275C87.0486 166.356 77.1655 143.148 77.1655 143.148C77.1655 143.148 73.8964 147.712 69.0308 152.431C63.253 158.001 58.0833 162.566 57.171 170.456Z" fill="white"/>
<path d="M58.6914 184.149L59.7557 186.393C59.7557 186.393 72.1477 187.011 77.6975 179.275C83.5514 171.23 81.8789 159.084 79.7502 151.116C79.7502 151.039 79.6742 150.962 79.6742 150.962C79.6742 150.962 77.0133 163.881 74.6566 168.136C69.0307 178.192 58.6914 184.149 58.6914 184.149Z" fill="white"/>
<path d="M41.8901 137.269C41.3579 146.629 45.3112 152.199 45.3112 152.199C45.3112 152.199 57.019 151.967 61.8085 144.309C69.7911 131.467 58.9956 110.193 58.9956 110.193C58.9956 110.193 56.1827 114.68 51.8493 119.553C46.9077 125.123 42.2702 129.765 41.8901 137.269Z" fill="white"/>
<path d="M44.1709 150.111L45.3113 152.122C45.3113 152.122 57.019 151.89 61.8086 144.231C66.8262 136.186 64.4695 124.814 61.9607 117.464C61.9607 117.387 61.8846 117.31 61.8846 117.31C61.8846 117.31 60.136 129.765 58.2354 133.942C53.5979 143.844 44.1709 150.111 44.1709 150.111Z" fill="white"/>
<path d="M30.5624 140.441C35.428 148.486 34.4397 155.216 34.4397 155.216C34.4397 155.216 23.9483 160.632 16.1938 156.222C3.1936 148.795 2.81348 124.814 2.81348 124.814C2.81348 124.814 7.37495 127.444 13.4569 129.61C20.4512 132.086 26.6852 134.02 30.5624 140.441Z" fill="white"/>
<path d="M34.5157 152.896L34.4397 155.216C34.4397 155.216 23.9483 160.632 16.1938 156.222C8.05918 151.58 4.86615 140.363 3.57373 132.704C3.57373 132.627 3.57373 132.55 3.57373 132.55C3.57373 132.55 10.8721 142.684 14.5213 145.392C23.2641 151.89 34.5157 152.896 34.5157 152.896Z" fill="white"/>
<path d="M40.2176 177.187C46.3755 184.845 46.3756 192.04 46.3756 192.04C46.3756 192.04 36.1883 199.234 27.5215 195.753C12.9248 189.874 9.12354 164.886 9.12354 164.886C9.12354 164.886 14.2932 166.975 20.9073 168.368C28.5098 169.992 35.352 171.075 40.2176 177.187Z" fill="white"/>
<path d="M46.0716 189.642L46.3757 192.117C46.3757 192.117 36.1884 199.312 27.5216 195.831C18.3226 192.117 13.457 180.977 11.0243 173.087C11.0243 173.009 10.9482 172.932 10.9482 172.932C10.9482 172.932 19.9952 182.447 24.1765 184.768C34.2878 190.183 46.0716 189.642 46.0716 189.642Z" fill="white"/>
<path d="M52.9136 214.088C61.1242 219.425 63.2529 226.311 63.2529 226.311C63.2529 226.311 55.8025 236.367 46.4515 235.748C30.7144 234.82 19.5388 212.231 19.5388 212.231C19.5388 212.231 25.0886 212.54 31.7788 211.767C39.6093 210.916 46.3755 209.833 52.9136 214.088Z" fill="white"/>
<path d="M62.2645 224.067L63.2529 226.31C63.2529 226.31 55.8025 236.367 46.4514 235.748C36.5683 235.13 28.5097 226.078 23.8722 219.348C23.8722 219.271 23.7961 219.193 23.7961 219.193C23.7961 219.193 35.2758 225.382 39.9894 226.233C51.241 228.322 62.2645 224.067 62.2645 224.067Z" fill="white"/>
<path d="M20.9074 111.74C24.7086 120.327 30.7146 123.344 30.7146 123.344C30.7146 123.344 41.0539 117.619 41.8141 108.568C43.1066 93.4054 23.8723 79.5579 23.8723 79.5579C23.8723 79.5579 23.4162 84.8958 21.7437 91.2393C19.843 98.5885 17.8664 104.855 20.9074 111.74Z" fill="white"/>
<path d="M28.2817 120.327C28.5858 121.565 30.6384 123.344 30.6384 123.344C30.6384 123.344 40.9778 117.619 41.738 108.568C42.5743 99.0527 35.2759 90.0789 29.8022 84.6637C29.7261 84.5863 29.6501 84.509 29.6501 84.509C29.6501 84.509 33.7554 96.3451 33.9075 100.987C34.1356 107.872 29.9542 112.978 28.3577 116.846C28.1296 117.542 27.9016 118.857 28.2817 120.327Z" fill="white"/>
<path d="M89.6336 115.376C85.0722 117.232 75.7972 113.751 73.6685 109.264C72.6042 107.021 73.3644 104.932 75.7211 103.849C80.0545 101.915 89.1015 104.468 91.7623 108.413C93.6629 111.276 92.8267 114.061 89.6336 115.376Z" fill="white"/>
<path d="M99.2127 99.2074C94.3472 99.6716 86.4406 93.5601 85.6804 88.6864C85.3002 86.2109 86.5927 84.4316 89.1775 84.1222C93.891 83.5033 101.798 88.6091 103.242 93.1733C104.306 96.4225 102.634 98.8206 99.2127 99.2074Z" fill="white"/>
<path d="M112.289 83.7353C107.423 82.8844 101.417 74.9163 101.874 70.0426C102.102 67.4897 103.85 66.1746 106.435 66.484C111.149 67.1029 117.459 74.1427 117.763 78.939C117.915 82.4202 115.71 84.3542 112.289 83.7353Z" fill="white"/>
<path d="M130.231 72.9049C125.745 70.9709 121.64 61.765 123.237 57.1234C124.073 54.7252 126.049 53.7969 128.482 54.8026C132.892 56.5045 137.453 64.8595 136.617 69.5784C136.009 72.9049 133.424 74.2974 130.231 72.9049Z" fill="white"/>
<path d="M150.073 67.8765C147.032 64.0085 147.792 53.8743 151.365 50.5478C153.19 48.8459 155.395 49.0006 157.067 51.0119C160.108 54.6479 160.26 64.2406 157.295 67.9539C155.091 70.7388 152.202 70.6615 150.073 67.8765Z" fill="white"/>
<path d="M183.828 57.9744C185.348 62.6933 181.243 71.8992 176.758 73.7559C174.477 74.6842 172.5 73.7559 171.588 71.2803C169.915 66.7934 173.109 57.7423 177.138 55.2668C180.103 53.5648 182.764 54.6479 183.828 57.9744Z" fill="white"/>
<path d="M205.875 71.6671C205.571 76.6182 198.501 83.658 193.635 83.7354C191.126 83.7354 189.606 82.1882 189.682 79.4805C189.758 74.6842 195.916 67.4897 200.629 66.7161C203.898 66.1746 206.027 68.1086 205.875 71.6671Z" fill="white"/>
<path d="M223.133 90.1563C221.536 94.8752 212.793 99.6716 208.156 98.3565C205.723 97.7376 204.735 95.7262 205.495 93.1733C206.863 88.6091 214.694 83.3486 219.407 83.8901C222.677 84.3543 224.197 86.8298 223.133 90.1563Z" fill="white"/>
<path d="M234.688 110.115C231.952 114.293 222.296 116.536 218.115 114.061C215.986 112.823 215.454 110.579 216.823 108.413C219.331 104.313 228.226 101.374 232.636 103.075C235.753 104.391 236.589 107.176 234.688 110.115Z" fill="white"/>
<path d="M225.413 54.7252C221.232 59.0574 222.98 64.3953 223.437 65.4783C224.197 67.4123 228.91 73.2144 236.285 71.203C248.601 67.7218 251.186 48.6138 251.186 48.6138C251.186 48.6138 247.384 48.8459 241.835 49.3874C235.372 50.0063 229.747 50.2383 225.413 54.7252Z" fill="white"/>
<path d="M224.577 63.2349C223.817 63.699 223.285 64.3179 223.589 65.6331C223.893 67.2576 228.682 73.3691 236.665 71.3577C244.495 69.4237 248.145 61.2235 250.045 53.8743C250.045 53.7969 250.273 53.1007 250.273 53.1007C250.273 53.1007 241.378 59.9857 237.805 61.4556C232.408 63.699 231.343 63.1575 227.77 63.0028C227.086 62.9254 225.489 62.616 224.577 63.2349Z" fill="white"/>
<path d="M201.465 36.9323C199.641 42.7344 203.594 46.6798 204.43 47.4534C205.951 48.8458 212.717 51.9403 218.419 46.6798C227.922 37.938 221.764 19.681 221.764 19.681C221.764 19.681 218.419 21.615 213.781 24.6321C208.308 28.1133 203.366 30.9756 201.465 36.9323Z" fill="white"/>
<path d="M204.43 44.8231C203.974 45.5967 203.822 46.3703 204.582 47.376C205.571 48.6911 212.565 52.0176 218.799 46.525C224.881 41.1872 224.577 32.2907 223.056 24.7868C223.056 24.7094 222.904 24.0132 222.904 24.0132C222.904 24.0132 217.963 34.2247 215.454 37.1644C211.653 41.574 210.436 41.574 207.167 43.1212C206.559 43.508 204.963 43.9721 204.43 44.8231Z" fill="white"/>
<path d="M143.535 24.0132C144.599 29.9699 149.845 31.5945 150.985 31.9039C152.962 32.3681 160.412 31.9039 162.997 24.6321C167.407 12.4091 153.57 -0.819504 153.57 -0.819504C153.57 -0.819504 151.517 2.42964 148.781 7.3807C145.512 13.028 142.471 17.8243 143.535 24.0132Z" fill="white"/>
<path d="M149.769 29.6605C149.693 30.5888 149.921 31.3624 151.061 31.9039C152.582 32.6002 160.184 32.2134 163.225 24.4773C166.19 16.896 161.781 9.08263 156.991 3.20324L156.535 2.58437C156.535 2.58437 156.839 13.9563 155.927 17.747C154.558 23.4717 153.494 24.0905 151.289 26.9529C151.061 27.417 149.845 28.5774 149.769 29.6605Z" fill="white"/>
<path d="M108.64 36.7003C110.768 42.3476 107.043 46.525 106.283 47.376C104.838 48.8458 98.2243 52.2497 92.2944 47.376C82.3352 39.1758 87.5048 20.6093 87.5048 20.6093C87.5048 20.6093 90.926 22.3112 95.7915 25.0962C101.341 28.268 106.359 30.8209 108.64 36.7003Z" fill="white"/>
<path d="M106.055 44.8231C106.587 45.5967 106.815 46.3703 106.055 47.376C105.143 48.7685 98.3763 52.4044 91.8382 47.376C85.4522 42.4249 85.3001 33.4511 86.4405 25.8698C86.4405 25.7925 86.5165 25.0962 86.5165 25.0962C86.5165 25.0962 91.9903 34.9983 94.6511 37.8607C98.6804 42.1155 99.8968 42.0381 103.242 43.3533C103.85 43.508 105.447 43.9722 106.055 44.8231Z" fill="white"/>
<path d="M81.6509 54.8026C85.6802 59.2895 83.7036 64.55 83.2474 65.6331C82.4112 67.5671 77.4696 73.2144 70.1712 70.8935C57.9313 67.0255 56.1067 47.7628 56.1067 47.7628C56.1067 47.7628 59.9079 48.0722 65.3817 48.8458C71.8438 49.6968 77.4696 50.161 81.6509 54.8026Z" fill="white"/>
<path d="M82.183 63.3122C82.9432 63.7764 83.3994 64.4726 83.0953 65.7104C82.7152 67.335 77.7736 73.2917 69.867 70.9709C62.1125 68.7275 58.7674 60.4499 57.0949 52.9459C57.0949 52.8686 56.9429 52.1723 56.9429 52.1723C56.9429 52.1723 65.6097 59.3669 69.1068 60.9914C74.3525 63.3896 75.4929 62.9254 79.066 62.9254C79.6742 62.9254 81.2707 62.6933 82.183 63.3122Z" fill="white"/>
<path d="M110.008 176.568C119.891 170.379 131.523 166.82 143.991 166.82C161.553 166.82 177.518 173.938 189.226 185.464C189.378 185.31 189.606 185.155 189.758 185C201.618 174.634 209.144 159.316 209.144 142.142C209.144 111.044 184.36 85.8241 153.798 85.8241C123.236 85.8241 98.4524 111.044 98.4524 142.142C98.4524 155.062 102.71 166.898 109.856 176.413C109.932 176.49 109.932 176.568 110.008 176.568Z" fill="white"/>
<path d="M110.008 176.568C119.891 170.379 131.523 166.82 143.991 166.82C161.553 166.82 177.518 173.938 189.226 185.464C189.378 185.31 189.606 185.155 189.758 185C201.618 174.634 209.144 159.316 209.144 142.142C209.144 130.461 205.647 119.553 199.641 110.579C199.641 110.579 197.664 108.104 178.582 108.955C161.705 109.651 141.786 114.989 123.616 121.719C109.704 126.902 99.0606 133.633 99.0606 133.633C98.6044 136.418 98.4524 139.28 98.4524 142.22C98.4524 155.139 102.71 166.975 109.856 176.49C109.932 176.49 109.932 176.568 110.008 176.568Z" fill="white"/>
<path d="M110.008 176.568C119.891 170.379 131.523 166.82 143.991 166.82C161.553 166.82 177.518 173.938 189.226 185.464C189.378 185.31 189.606 185.155 189.758 185C201.466 174.789 208.916 159.781 209.144 142.916C209.144 142.916 197.968 133.865 164.137 133.401C131.295 133.014 99.2886 151.658 99.2886 151.658C100.809 160.864 104.534 169.373 109.932 176.49C109.932 176.49 109.932 176.568 110.008 176.568Z" fill="white"/>
<path d="M110.008 176.568C119.891 170.379 131.523 166.82 143.991 166.82C161.553 166.82 177.518 173.938 189.226 185.464C189.378 185.309 189.606 185.155 189.758 185C196.22 179.43 201.314 172.39 204.735 164.345C204.735 164.345 188.313 151.58 157.751 151.271C122.628 150.884 103.47 165.583 103.47 165.583C103.47 165.583 103.47 165.583 103.47 165.66C105.219 169.528 107.347 173.164 109.856 176.49C109.932 176.49 109.932 176.568 110.008 176.568Z" fill="white"/>
<path d="M153.342 310.324C167.103 310.324 181.775 301.195 194.319 297.482C202.758 268.085 156.991 227.084 114.189 227.084C86.8206 227.084 62.7209 241.164 48.5803 262.593C74.2006 291.912 111.605 310.324 153.342 310.324Z" fill="white"/>
<path d="M153.342 310.324C165.354 310.324 177.062 308.777 188.161 305.914C184.664 274.351 153.722 237.837 115.254 237.837C90.3177 237.837 68.3467 250.447 55.1184 269.632C80.3585 294.774 115.102 310.324 153.342 310.324Z" fill="white"/>
<path d="M153.342 310.324C166.57 310.324 179.342 308.467 191.43 305.063C180.635 278.916 155.167 260.581 125.365 260.581C104.382 260.581 85.4522 269.71 72.376 284.331C95.2594 300.654 123.16 310.324 153.342 310.324Z" fill="white"/>
<path d="M81.8792 290.674C102.71 303.129 127.114 310.324 153.114 310.324C163.605 310.324 173.869 309.163 183.752 306.92C171.892 287.193 150.453 274.042 126.049 274.042C109.172 274.042 93.739 280.308 81.8792 290.674Z" fill="white"/>
<path d="M99.7446 298.72C99.7446 298.72 120.271 286.806 127.113 282.861C143.991 273.114 173.716 266.074 173.716 266.074L195.383 272.959C195.383 272.959 198.5 275.898 197.284 276.131C179.874 279.612 152.81 291.68 137.301 299.648C123.084 306.92 99.7446 298.72 99.7446 298.72Z" fill="white"/>
<path d="M129.622 303.98C129.622 303.98 147.488 293.614 153.494 290.133C168.167 281.623 194.091 275.512 194.091 275.512L212.945 281.468C212.945 281.468 215.606 284.021 214.618 284.176C199.413 287.193 175.845 297.714 162.389 304.677C149.921 311.175 129.622 303.98 129.622 303.98Z" fill="white"/>
<path d="M286.613 203.025C285.244 203.412 283.876 208.44 283.876 208.44C283.876 208.44 282.66 203.953 281.063 202.87C279.01 201.478 276.35 203.412 276.198 204.418C275.285 208.904 274.753 214.938 273.689 220.122C273.157 219.967 272.7 219.812 272.32 219.658C266.694 217.646 263.045 214.01 261.981 207.821C261.525 205.036 261.753 202.251 261.601 199.466C261.525 196.991 260.08 195.057 258.18 194.902C256.735 194.825 255.443 195.057 255.443 195.057C253.162 195.444 252.706 197.223 252.554 199.08C252.402 201.942 252.174 204.882 252.63 207.667C253.01 210.452 253.01 212.695 255.215 217.569C257.876 223.526 262.893 227.007 268.823 229.095C269.051 229.095 269.659 229.25 270.268 229.405C267.151 235.671 263.958 241.705 260.689 246.734C258.864 246.192 254.607 241.396 253.162 239.926C249.969 236.599 247.156 232.809 243.355 230.178C240.998 227.78 238.565 225.614 235.752 223.68C228.986 219.039 221.46 216.022 213.705 213.778C202.074 210.452 191.886 204.572 182.915 196.295C173.793 187.862 163.453 181.596 151.061 179.353C146.956 178.579 142.775 178.811 138.669 178.192C136.16 177.806 133.728 180.823 134.032 183.375C134.412 187.011 136.084 188.791 139.581 189.177C143.535 189.642 147.564 189.564 151.289 190.802C160.488 193.819 168.547 198.693 175.693 205.346C185.12 214.165 195.916 220.586 208.308 224.299C218.799 227.471 228.758 231.88 237.045 239.462C240.162 242.943 243.431 246.269 246.092 250.137C247.46 252.149 250.045 255.011 250.881 257.564C249.133 258.957 246.928 260.426 244.495 262.128C244.495 262.128 244.039 262.36 243.203 262.67C241.758 260.968 239.858 258.957 238.337 257.332C235.22 254.006 225.489 246.656 224.045 245.883C217.203 242.092 209.676 240.467 202.378 238.224C201.237 237.76 200.097 237.218 199.033 236.754C194.699 234.82 190.138 233.273 186.261 230.333C183.752 228.399 181.471 226.156 178.886 224.299C177.822 223.526 176.834 222.675 175.845 221.824C173.032 219.58 170.599 216.873 167.406 215.093C164.365 212.695 161.477 210.142 158.284 207.976C151.441 203.334 143.915 200.859 135.704 200.163C133.119 199.931 130.535 199.699 128.026 200.085C124.985 200.472 122.704 203.257 122.932 206.119C123.16 208.982 125.289 211.148 128.178 211.148C140.266 211.148 150.681 215.557 159.88 223.293C164.594 227.471 169.687 231.184 174.097 235.748C182.687 244.645 195.155 248.513 200.021 249.905C207.015 251.917 214.009 253.928 220.396 257.487C221.08 258.028 221.764 258.492 222.372 259.111C225.033 261.742 228.378 263.753 230.051 267.311C224.197 268.859 217.431 269.942 211.577 269.013C179.874 263.753 143.763 244.103 118.371 245.496C94.727 246.811 73.5922 256.868 60.2119 274.583C64.0892 278.065 68.1185 281.314 72.2998 284.331C85.376 269.787 104.306 260.581 125.289 260.581C152.962 260.581 149.389 271.025 207.547 282.087C204.126 283.557 200.705 285.027 197.284 286.342C174.401 295.161 151.974 298.642 150.909 298.72C131.979 299.88 113.277 299.261 97.3119 298.72C112.213 305.528 130.307 310.556 154.786 310.556C222.144 310.556 279.391 259.111 289.882 209.523C290.794 205.268 289.654 202.097 286.613 203.025Z" fill="white"/>
<path d="M265.858 135.257C266.847 140.595 271.56 141.988 272.549 142.22C274.297 142.607 280.911 142.142 283.268 135.567C287.145 124.659 274.677 112.9 274.677 112.9C274.677 112.9 272.853 115.84 270.42 120.249C267.607 125.355 264.87 129.687 265.858 135.257Z" fill="white"/>
<path d="M275.21 142.22C276.578 142.839 281.292 140.75 283.496 135.412C285.701 130.074 282.128 121.719 277.794 116.459L277.338 115.917C277.338 115.917 277.262 127.057 276.958 129.455C276.274 134.716 274.221 141.756 275.21 142.22Z" fill="white"/>
<path d="M266.315 170.766C267.303 176.104 272.016 177.496 273.005 177.728C274.753 178.115 281.367 177.651 283.724 171.075C287.601 160.167 275.133 148.409 275.133 148.409C275.133 148.409 273.309 151.348 270.876 155.758C267.987 160.941 265.25 165.273 266.315 170.766Z" fill="white"/>
<path d="M275.666 177.806C277.034 178.424 281.748 176.336 283.952 170.998C286.157 165.66 282.584 157.305 278.25 152.045L277.794 151.503C277.794 151.503 277.718 162.643 277.414 165.041C276.73 170.302 274.601 177.264 275.666 177.806Z" fill="white"/>
<path d="M265.706 206.042C266.695 211.38 271.408 212.772 272.397 213.005C274.145 213.391 280.759 212.927 283.116 206.352C286.993 195.444 274.525 183.685 274.525 183.685C274.525 183.685 272.701 186.625 270.268 191.034C267.455 196.14 264.718 200.55 265.706 206.042Z" fill="white"/>
<path d="M275.057 213.005C276.426 213.623 281.139 211.535 283.344 206.197C285.549 200.859 281.976 192.504 277.642 187.244L277.186 186.702C277.186 186.702 277.11 197.842 276.806 200.24C276.122 205.501 274.069 212.54 275.057 213.005Z" fill="white"/>
<path d="M27.7496 327.188C30.7145 329.741 32.6152 333.222 32.6152 337.013C32.6152 338.406 31.3988 339.489 29.8022 339.489H25.3928C23.8723 339.489 22.6559 338.406 22.6559 337.013C22.6559 335.775 22.0477 334.615 20.9834 333.764C19.843 332.836 18.3225 332.217 16.4979 332.217C14.7494 332.217 13.1529 332.758 12.0125 333.764C10.9482 334.615 10.34 335.775 10.34 337.013C10.34 341.345 15.0535 344.981 19.691 348.54C26.1531 353.491 32.6152 358.365 32.6152 366.874C32.6152 370.742 30.7145 374.223 27.7496 376.699C24.8607 379.175 20.8313 380.644 16.4979 380.644C12.1646 380.644 8.21128 379.097 5.32235 376.699C2.28137 374.223 0.456787 370.665 0.456787 366.874C0.456787 366.255 0.760878 365.559 1.29305 365.095C1.82522 364.631 2.50944 364.399 3.19366 364.399H7.67911C8.36334 364.399 9.12358 364.631 9.57973 365.095C10.1119 365.559 10.416 366.255 10.416 366.874C10.416 368.189 11.0242 369.35 12.0885 370.201C13.2289 371.129 14.7494 371.748 16.574 371.748C18.3986 371.748 19.9951 371.129 21.0594 370.201C22.1238 369.35 22.732 368.189 22.732 366.874C22.732 362.542 18.0184 358.983 13.381 355.425C6.91887 350.474 0.456787 345.6 0.456787 337.09C0.456787 333.222 2.35739 329.741 5.32235 327.266C8.21128 324.868 12.2406 323.32 16.4979 323.32C20.9074 323.243 24.8607 324.79 27.7496 327.188Z" fill="white"/>
<path d="M47.0599 322.934C47.6681 322.934 48.3523 323.166 48.8085 323.63C49.3407 324.017 49.5687 324.635 49.5687 325.254V365.946C49.5687 367.493 50.2529 368.963 51.3933 369.969C52.4577 370.974 54.0542 371.593 55.7267 371.593C57.3993 371.593 58.9958 370.974 60.0601 369.969C61.2005 368.963 61.8847 367.493 61.8847 365.946V325.254C61.8847 324.635 62.1128 324.017 62.645 323.63C63.1011 323.166 63.7093 322.934 64.3935 322.934H69.3351C70.0193 322.934 70.6275 323.166 71.0837 323.63C71.5398 324.017 71.7679 324.635 71.7679 325.254V365.946C71.7679 370.046 70.0193 373.682 67.0544 376.39C64.1654 379.02 60.1361 380.722 55.7267 380.722C51.3173 380.722 47.288 379.097 44.3991 376.39C41.5101 373.682 39.6855 370.046 39.6855 365.946V325.254C39.6855 324.635 39.9136 324.017 40.3698 323.63C40.8259 323.166 41.5101 322.934 42.1183 322.934H47.0599Z" fill="white"/>
<path d="M87.2008 323.243C88.3412 323.243 89.4055 323.939 89.7857 324.945C91.6103 329.819 96.932 343.976 99.4408 350.629C99.5168 350.861 99.8209 351.093 100.201 351.015C100.505 350.938 100.809 350.706 100.809 350.396V325.719C100.809 324.326 102.026 323.243 103.546 323.243H108.032C109.552 323.243 110.768 324.403 110.768 325.719V377.55C110.768 378.401 110.388 379.175 109.704 379.793C109.096 380.335 108.184 380.722 107.271 380.722H103.318C101.798 380.722 100.505 379.871 99.973 378.556C97.9963 373.295 92.9787 359.757 90.5459 353.259C90.3939 353.027 90.1658 352.795 89.7857 352.872C89.4816 352.949 89.1775 353.181 89.1775 353.491V378.246C89.1775 378.942 88.8734 379.561 88.3412 380.026C87.809 380.49 87.1248 380.722 86.4406 380.722H81.9551C80.4347 380.722 79.2183 379.639 79.2183 378.246V325.719C79.2183 324.326 80.4347 323.243 81.9551 323.243H87.2008Z" fill="white"/>
<path d="M176.454 327.498C179.343 330.205 181.167 333.841 181.167 337.864V338.019C181.167 339.411 179.951 340.572 178.43 340.572H174.021C172.5 340.572 171.284 339.411 171.284 338.019V337.864C171.284 336.317 170.6 334.924 169.459 333.919C168.319 332.913 166.799 332.294 165.126 332.294C163.453 332.294 161.857 332.913 160.793 333.919C159.652 334.924 159.044 336.317 159.044 337.864V366.101C159.044 368.808 160.564 370.51 162.465 371.129C163.301 371.439 164.214 371.593 165.126 371.593C166.038 371.593 167.027 371.439 167.787 371.129C169.763 370.433 171.284 368.731 171.284 366.101V358.751C171.284 358.133 170.98 357.436 170.448 357.049C169.916 356.585 169.231 356.353 168.547 356.353H167.863C167.179 356.353 166.418 356.121 165.962 355.58C165.43 355.116 165.126 354.497 165.126 353.878V349.778C165.126 348.385 166.342 347.302 167.863 347.302H178.506C179.191 347.302 179.951 347.534 180.483 347.998C181.015 348.462 181.243 349.159 181.243 349.778V366.101V378.014C181.243 379.407 180.027 380.49 178.506 380.49H172.272C171.74 380.49 171.284 380.103 171.284 379.561C169.307 380.258 167.179 380.644 165.126 380.644C162.997 380.644 160.793 380.258 158.74 379.484C153.342 377.473 149.009 372.986 149.009 366.023V337.787C149.009 333.764 150.833 330.051 153.722 327.42C156.611 324.79 160.641 323.088 165.05 323.088C169.459 323.088 173.489 324.868 176.454 327.498Z" fill="white"/>
<path d="M204.05 323.088C208.46 323.088 212.489 324.713 215.378 327.42C218.267 330.051 220.091 333.764 220.091 337.787V345.678C220.091 351.402 214.998 358.829 208.764 360.067C208.46 360.067 208.232 360.221 208.156 360.531C208.004 360.763 208.08 360.995 208.232 361.227C210.208 364.089 215.986 372.522 219.331 377.318C219.787 378.014 219.787 378.865 219.407 379.561C218.951 380.258 218.115 380.722 217.279 380.722H211.577C210.74 380.722 209.98 380.335 209.524 379.716C207.319 376.467 200.629 366.72 198.501 363.625C198.424 363.548 198.272 363.47 198.12 363.548C197.968 363.548 197.892 363.702 197.892 363.857V378.556C197.892 379.793 196.828 380.799 195.46 380.799H190.366C189.682 380.799 189.073 380.567 188.617 380.18C188.161 379.793 187.933 379.175 187.933 378.556C187.933 369.427 187.933 334.538 187.933 325.332C187.933 324.094 189.073 323.088 190.366 323.088H204.05ZM200.249 332.139C198.957 332.139 197.816 333.145 197.816 334.383V349.081C197.816 350.319 198.881 351.247 200.249 351.247H204.05C205.723 351.247 207.319 350.629 208.384 349.623C209.524 348.617 210.208 347.225 210.208 345.678V337.787C210.208 336.24 209.524 334.847 208.384 333.841C206.787 332.294 204.887 332.139 202.834 332.139C201.922 332.062 201.161 332.139 200.249 332.139Z" fill="white"/>
<path d="M248.069 323.243C249.133 323.243 249.969 323.862 250.197 324.79C252.174 332.758 261.221 368.576 263.654 378.246C263.806 378.865 263.654 379.484 263.273 379.948C262.893 380.412 262.209 380.722 261.601 380.722H255.899C254.911 380.722 253.998 380.103 253.77 379.175C253.162 376.776 252.022 372.135 251.414 370.046C251.262 369.427 250.729 369.04 249.969 369.04H239.402C238.718 369.04 238.185 369.427 237.957 370.046C237.425 372.057 236.285 376.699 235.677 379.175C235.449 380.103 234.536 380.722 233.548 380.722H227.846C227.162 380.722 226.554 380.49 226.174 379.948C225.793 379.484 225.565 378.865 225.793 378.246C228.226 368.576 237.273 332.681 239.25 324.79C239.478 323.862 240.39 323.243 241.378 323.243H248.069ZM243.811 347.07C242.975 350.551 241.683 355.657 240.998 358.287C240.846 358.674 240.998 359.061 241.226 359.448C241.53 359.757 241.911 359.912 242.367 359.912H247.004C247.46 359.912 247.84 359.757 248.145 359.448C248.373 359.138 248.525 358.674 248.373 358.287C247.764 355.657 246.396 350.551 245.56 347.07C245.484 346.683 245.028 346.374 244.647 346.374C244.267 346.374 243.887 346.683 243.811 347.07Z" fill="white"/>
<path d="M276.502 323.243C277.186 323.243 277.946 323.475 278.478 324.017C279.011 324.481 279.239 325.1 279.239 325.796V378.246C279.239 378.865 278.935 379.561 278.478 380.026C277.946 380.49 277.262 380.722 276.502 380.722H272.092C271.332 380.722 270.648 380.49 270.116 380.026C269.584 379.561 269.28 378.865 269.28 378.246V325.796C269.28 325.1 269.584 324.481 270.116 324.017C270.648 323.552 271.332 323.243 272.092 323.243H276.502Z" fill="white"/>
<path d="M293.911 323.243C295.052 323.243 296.116 323.939 296.496 324.945C298.321 329.819 303.642 343.976 306.151 350.629C306.227 350.861 306.531 351.093 306.912 351.015C307.216 350.938 307.52 350.706 307.52 350.396V325.719C307.52 324.326 308.736 323.243 310.257 323.243H314.742C316.263 323.243 317.479 324.403 317.479 325.719V377.55C317.479 378.401 317.099 379.175 316.415 379.793C315.806 380.335 314.894 380.722 313.982 380.722H310.028C308.508 380.722 307.216 379.871 306.683 378.556C304.707 373.295 299.689 359.757 297.256 353.259C297.104 353.027 296.876 352.795 296.496 352.872C296.192 352.949 295.888 353.181 295.888 353.491V378.246C295.888 378.942 295.584 379.561 295.052 380.026C294.519 380.49 293.835 380.722 293.151 380.722H288.666C287.145 380.722 285.929 379.639 285.929 378.246V325.719C285.929 324.326 287.145 323.243 288.666 323.243H293.911Z" fill="white"/>
</g>
<defs>
<clipPath id="clip0_8_118">
<rect width="318" height="379.748" fill="white"/>
</clipPath>
</defs>
</svg>
