<svg width="210" height="69" viewBox="0 0 210 69" fill="none" xmlns="http://www.w3.org/2000/svg">
<path d="M12.7619 38.9507C10.1401 38.9507 7.66608 38.4857 5.33507 37.5508C3.00405 36.6184 1.22648 35.4405 0 34.015L0.919269 32.795C2.0754 34.0851 3.71696 35.1788 5.84395 36.0762C7.97094 36.9759 10.2597 37.4247 12.7104 37.4247C15.1938 37.4247 17.2364 37.0858 18.8357 36.4081C20.4351 35.7303 21.617 34.8236 22.3838 33.6854C23.1483 32.5497 23.5329 31.2877 23.5329 29.8948C23.5329 28.2659 23.1249 26.9619 22.3088 25.978C21.4927 24.9941 20.4116 24.2159 19.0679 23.6387C17.7242 23.0614 16.2608 22.587 14.6779 22.2154C13.095 21.8415 11.4956 21.4442 9.87984 21.0189C8.26408 20.5959 6.78199 20.0514 5.43825 19.39C4.09452 18.7286 3.02281 17.8125 2.22314 16.644C1.42346 15.4732 1.02245 13.9565 1.02245 12.0915C1.02245 10.4977 1.44691 9.0067 2.29818 7.61618C3.14945 6.22567 4.47677 5.09923 6.28014 4.23454C8.08351 3.36985 10.3981 2.9375 13.2216 2.9375C15.161 2.9375 17.0746 3.2343 18.9647 3.8279C20.8525 4.4215 22.4612 5.20907 23.7885 6.19295L23.024 7.5671C21.5959 6.51545 20.013 5.7349 18.2776 5.22777C16.5422 4.7183 14.8749 4.46356 13.2755 4.46356C10.8929 4.46356 8.91132 4.81178 7.32839 5.50587C5.74546 6.2023 4.57995 7.12541 3.83187 8.27755C3.08379 9.4297 2.70857 10.7034 2.70857 12.0915C2.70857 13.7532 3.11662 15.0759 3.9327 16.0598C4.74879 17.0437 5.82988 17.8242 7.17361 18.3991C8.51735 18.9764 9.99006 19.4508 11.5894 19.8223C13.1888 20.1963 14.7881 20.5936 16.3875 21.0189C17.9868 21.4442 19.4572 21.9934 20.8032 22.6712C22.147 23.3489 23.2187 24.258 24.0184 25.3938C24.818 26.5295 25.219 28.0135 25.219 29.8458C25.219 31.4396 24.7852 32.9329 23.9175 34.3211C23.0498 35.7116 21.6873 36.8311 19.8347 37.6794C17.9774 38.5254 15.6206 38.9507 12.7619 38.9507Z" fill="#EB5A2E"/>
<path d="M44.7653 38.745V3.13843H57.1685C60.128 3.13843 62.6724 3.61284 64.7994 4.56166C66.9264 5.51048 68.5515 6.85893 69.6748 8.60467C70.7981 10.3528 71.3586 12.4631 71.3586 14.938C71.3586 17.4128 70.7981 19.5348 69.6748 21.2969C68.5515 23.0614 66.9264 24.4168 64.7994 25.3657C62.6724 26.3145 60.128 26.7889 57.1685 26.7889H45.7338L46.5007 25.9756V38.7427H44.7653V38.745ZM46.503 25.978L45.7362 25.2138H57.2717C61.2864 25.2138 64.3585 24.3163 66.4855 22.5168C68.6125 20.7197 69.6748 18.1934 69.6748 14.938C69.6748 11.6825 68.6101 9.16322 66.4855 7.38476C64.3585 5.60396 61.2864 4.71357 57.2717 4.71357H45.7362L46.503 3.90029V25.978Z" fill="#EB5A2E"/>
<path d="M134.758 38.745V3.13843H147.161C150.121 3.13843 152.665 3.61284 154.792 4.56166C156.919 5.51048 158.544 6.85893 159.667 8.60467C160.791 10.3528 161.351 12.4631 161.351 14.938C161.351 17.4128 160.791 19.5348 159.667 21.2969C158.544 23.0614 156.919 24.4168 154.792 25.3657C152.665 26.3145 150.121 26.7889 147.161 26.7889H135.726L136.491 25.9756V38.7427H134.758V38.745ZM136.493 25.978L135.729 25.2138H147.264C151.279 25.2138 154.351 24.3163 156.478 22.5168C158.605 20.7197 159.667 18.1934 159.667 14.938C159.667 11.6825 158.603 9.16322 156.478 7.38476C154.351 5.60396 151.279 4.71357 147.264 4.71357H135.729L136.493 3.90029V25.978ZM159.871 38.745L150.58 25.8237H152.571L161.912 38.745H159.871Z" fill="#EB5A2E"/>
<path d="M181.615 38.7452V3.13857H183.35V38.7475H181.615V38.7452ZM183.097 29.5888L183.046 27.4013L206.731 3.13623H208.874L192.897 19.5677L191.877 20.5843L183.097 29.5888ZM207.854 38.7452L191.265 19.9229L192.44 18.7521L210 38.7428H207.854V38.7452Z" fill="#EB5A2E"/>
<path d="M50.8578 69C50.0371 69 49.2655 68.9159 48.5456 68.7476C47.8256 68.5794 47.2581 68.3924 46.8407 68.1868V65.4104H47.0307C47.3472 66.3732 47.8538 67.1421 48.555 67.717C49.2561 68.2919 50.0417 68.577 50.9141 68.577C51.7607 68.577 52.4384 68.3667 52.952 67.9437C53.4632 67.5207 53.7188 66.9809 53.7188 66.3195C53.7188 65.8427 53.5758 65.4455 53.292 65.1253C53.0083 64.8051 52.6448 64.5457 52.2016 64.3471C51.7583 64.1461 51.2237 63.9591 50.5905 63.7862C49.7322 63.5361 49.038 63.2931 48.5057 63.0547C47.9757 62.8163 47.5419 62.4868 47.2089 62.0638C46.8735 61.6408 46.707 61.101 46.707 60.4396C46.707 59.8343 46.8806 59.2898 47.2276 58.8084C47.5747 58.3269 48.0672 57.9507 48.705 57.6796C49.3429 57.4085 50.0793 57.2729 50.9118 57.2729C51.5684 57.2729 52.2227 57.3477 52.8723 57.4996C53.5218 57.6516 54.0448 57.8128 54.4364 57.9857V60.5354H54.2465C53.944 59.6684 53.4843 58.979 52.8723 58.4648C52.2602 57.9507 51.5168 57.6936 50.6468 57.6936C50.166 57.6936 49.7275 57.7777 49.3288 57.946C48.9302 58.1143 48.6112 58.3573 48.372 58.6775C48.1328 58.9977 48.0132 59.3739 48.0132 59.8063C48.0132 60.2386 48.1563 60.6008 48.4401 60.893C48.7238 61.1851 49.0896 61.4281 49.5399 61.6244C49.9878 61.8184 50.56 62.0194 51.2542 62.2251C52.1007 62.4751 52.7855 62.7182 53.3108 62.9565C53.8338 63.1949 54.2793 63.5361 54.6475 63.9801C55.0133 64.4242 55.1962 64.9967 55.1962 65.7002C55.1962 66.3382 55.0086 66.9108 54.6381 67.4132C54.2652 67.9157 53.7517 68.3059 53.095 68.5817C52.4361 68.8621 51.6927 69 50.8578 69Z" fill="#343434"/>
<path d="M70.1462 68.7407C70.3103 68.5467 70.4487 68.3013 70.5636 68.0092C70.6762 67.7171 70.7348 67.4203 70.7348 67.1165V57.7965H69.5224C68.8657 57.7965 68.3123 57.8947 67.8644 58.0886C67.4165 58.2826 67.0436 58.5514 66.7458 58.8926C66.448 59.2338 66.1689 59.6638 65.9016 60.1826H65.7116L66.129 57.4553H77.1556L77.5543 60.1826H77.3643C77.1111 59.6638 76.8344 59.2338 76.5318 58.8926C76.2293 58.5514 75.8518 58.2826 75.4038 58.0886C74.9559 57.8947 74.4095 57.7965 73.7646 57.7965H72.5335V67.1165C72.5335 67.4203 72.5897 67.7171 72.7047 68.0092C72.8172 68.3013 72.9579 68.5444 73.1221 68.7407V68.8225H70.1485V68.7407H70.1462Z" fill="#343434"/>
<path d="M94.0754 69.0001C92.4831 69.0001 91.2355 68.6776 90.3326 68.0349C89.4298 67.3922 88.9772 66.4785 88.9772 65.2983V59.1613C88.9772 58.8575 88.9209 58.5607 88.806 58.2686C88.6934 57.9765 88.5527 57.7334 88.3885 57.5371V57.4553H91.3621V57.5371C91.198 57.7311 91.0596 57.9765 90.9447 58.2686C90.8321 58.5607 90.7735 58.8599 90.7735 59.1613V65.2983C90.7735 66.3149 91.1112 67.1025 91.7866 67.661C92.462 68.2196 93.3555 68.4977 94.467 68.4977C95.5786 68.4977 96.4721 68.2196 97.1475 67.661C97.8228 67.1048 98.1605 66.3172 98.1605 65.2983V59.1613C98.1605 58.8692 98.0902 58.5981 97.9518 58.3504C97.8135 58.1027 97.6047 57.8316 97.3257 57.5395V57.4577H99.4855V57.5395C99.2064 57.8316 99.0001 58.1027 98.8594 58.3504C98.721 58.6004 98.6506 58.8692 98.6506 59.1613V65.2983C98.6506 66.4668 98.2403 67.3759 97.4195 68.0256C96.6057 68.6753 95.4895 69.0001 94.0754 69.0001Z" fill="#343434"/>
<path d="M111.542 68.7407C111.706 68.5467 111.844 68.3013 111.959 68.0092C112.074 67.7171 112.13 67.4203 112.13 67.1165V59.1613C112.13 58.8575 112.074 58.5607 111.959 58.2686C111.846 57.9765 111.706 57.7334 111.542 57.5371V57.4553H116.354C117.592 57.4553 118.722 57.6446 119.745 58.0232C120.767 58.4018 121.593 59.0141 122.216 59.8578C122.843 60.7014 123.154 61.7951 123.154 63.1366C123.154 64.478 122.843 65.5717 122.216 66.4154C121.59 67.259 120.767 67.8713 119.745 68.2499C118.722 68.6285 117.592 68.8178 116.354 68.8178H111.542V68.7407ZM115.92 68.4649C116.931 68.4649 117.826 68.2873 118.61 67.9298C119.393 67.5722 120.014 66.995 120.476 66.2004C120.938 65.4058 121.168 64.3845 121.168 63.1389C121.168 61.8933 120.938 60.8767 120.476 60.0868C120.014 59.2969 119.393 58.7196 118.61 58.3574C117.826 57.9952 116.931 57.8129 115.92 57.8129C115.315 57.8129 114.651 57.8947 113.931 58.0559V68.2196C114.649 68.3831 115.313 68.4649 115.92 68.4649Z" fill="#343434"/>
<path d="M135.131 68.7407C135.295 68.5467 135.433 68.3013 135.548 68.0092C135.663 67.7171 135.719 67.4203 135.719 67.1165V59.1613C135.719 58.8575 135.663 58.5607 135.548 58.2686C135.436 57.9765 135.295 57.7334 135.131 57.5371V57.4553H138.048V57.5371C137.884 57.7311 137.746 57.9765 137.631 58.2686C137.516 58.5607 137.459 58.8599 137.459 59.1613V67.1165C137.459 67.4203 137.516 67.7171 137.631 68.0092C137.743 68.3013 137.884 68.5444 138.048 68.7407V68.8225H135.131V68.7407Z" fill="#343434"/>
<path d="M156.143 69C154.93 69 153.863 68.7569 152.942 68.2685C152.02 67.7824 151.302 67.093 150.791 66.2073C150.28 65.3216 150.024 64.2979 150.024 63.1388C150.024 61.9796 150.28 60.9584 150.791 60.0703C151.302 59.1822 152.02 58.4952 152.942 58.0091C153.863 57.523 154.93 57.2776 156.143 57.2776C157.355 57.2776 158.422 57.5206 159.344 58.0091C160.265 58.4952 160.983 59.1846 161.494 60.0703C162.005 60.9584 162.261 61.982 162.261 63.1388C162.261 64.2979 162.005 65.3192 161.494 66.2073C160.983 67.0953 160.265 67.7824 159.344 68.2685C158.422 68.7569 157.355 69 156.143 69ZM156.143 68.6424C156.964 68.6424 157.686 68.4087 158.312 67.9437C158.938 67.4786 159.421 66.8289 159.761 65.9946C160.101 65.1603 160.272 64.2091 160.272 63.1365C160.272 62.0638 160.101 61.1126 159.761 60.2783C159.421 59.444 158.938 58.7966 158.312 58.3292C157.686 57.8642 156.964 57.6305 156.143 57.6305C155.322 57.6305 154.6 57.8642 153.974 58.3292C153.347 58.7943 152.864 59.444 152.524 60.2783C152.184 61.1126 152.013 62.0638 152.013 63.1365C152.013 64.2091 152.184 65.1603 152.524 65.9946C152.864 66.8289 153.347 67.4786 153.974 67.9437C154.597 68.4111 155.32 68.6424 156.143 68.6424Z" fill="#343434"/>
<path d="M115.779 39.5701H90.3726L91.0456 38.1118C95.2292 29.5771 100.682 24.2791 105.747 20.9886L104.868 19.1027C100.121 20.7245 96.111 23.0148 93.0577 25.1251C86.74 29.4906 83.0371 34.0501 83.002 34.0945L79.5781 38.0721L97.3304 0L105.529 17.5836C109.682 16.2819 114.349 15.5013 119.402 15.742L125.145 16.0155L119.477 16.969C119.44 16.976 119.379 16.9853 119.297 16.997C117.2 17.2962 112.548 18.287 107.335 21.4537L115.779 39.5701ZM92.3213 38.3315H113.83L106.275 22.1244C101.474 25.2747 96.3244 30.3039 92.3213 38.3315ZM97.3304 2.93995L84.341 30.7947C86.0857 29.0373 88.7849 26.5741 92.3143 24.1296C95.4239 21.9772 99.5067 19.6402 104.338 17.9739L97.3304 2.93995ZM106.056 18.7171L106.807 20.3272C109.246 18.8596 111.567 17.8477 113.575 17.1536C110.918 17.4387 108.406 17.9902 106.056 18.7171Z" fill="#EB5A2E"/>
<path d="M124.039 16.105C125.191 11.7558 125.96 8.18685 125.758 8.13349C125.555 8.08013 124.456 11.5626 123.305 15.9118C122.153 20.2609 121.383 23.8299 121.586 23.8832C121.789 23.9366 122.887 20.4542 124.039 16.105Z" fill="#EB5A2E"/>
<path d="M131.574 18.0868C131.628 17.8846 128.133 16.7901 123.769 15.6422C119.405 14.4943 115.823 13.7277 115.77 13.9298C115.716 14.132 119.211 15.2265 123.575 16.3744C127.939 17.5223 131.52 18.2889 131.574 18.0868Z" fill="#EB5A2E"/>
</svg>
